  0
SECTION
  2
BLOCKS
  0
ENDSEC
  0
SECTION
  2
ENTITIES
  0
LINE
  8
0
 10
0
 11
0
 20
0
 21
164
  0
LINE
  8
0
 10
0
 11
296
 20
164
 21
164
  0
LINE
  8
0
 10
296
 11
298.179
 20
164
 21
163.905
  0
LINE
  8
0
 10
298.179
 11
300.341
 20
163.905
 21
163.62
  0
LINE
  8
0
 10
300.341
 11
302.47
 20
163.62
 21
163.148
  0
LINE
  8
0
 10
302.47
 11
304.551
 20
163.148
 21
162.492
  0
LINE
  8
0
 10
304.551
 11
306.565
 20
162.492
 21
161.658
  0
LINE
  8
0
 10
306.565
 11
308.5
 20
161.658
 21
160.651
  0
LINE
  8
0
 10
308.5
 11
310.339
 20
160.651
 21
159.479
  0
LINE
  8
0
 10
310.339
 11
312.07
 20
159.479
 21
158.151
  0
LINE
  8
0
 10
312.07
 11
313.678
 20
158.151
 21
156.678
  0
LINE
  8
0
 10
313.678
 11
315.151
 20
156.678
 21
155.07
  0
LINE
  8
0
 10
315.151
 11
316.479
 20
155.07
 21
153.339
  0
LINE
  8
0
 10
316.479
 11
317.651
 20
153.339
 21
151.5
  0
LINE
  8
0
 10
317.651
 11
318.658
 20
151.5
 21
149.565
  0
LINE
  8
0
 10
318.658
 11
319.492
 20
149.565
 21
147.551
  0
LINE
  8
0
 10
319.492
 11
320.148
 20
147.551
 21
145.47
  0
LINE
  8
0
 10
320.148
 11
320.62
 20
145.47
 21
143.341
  0
LINE
  8
0
 10
320.62
 11
320.905
 20
143.341
 21
141.179
  0
LINE
  8
0
 10
320.905
 11
321
 20
141.179
 21
139
  0
LINE
  8
0
 10
321
 11
321
 20
139
 21
0
  0
LINE
  8
0
 10
321
 11
0
 20
0
 21
0
  0
LINE
  8
0
 10
5
 11
5.048
 20
18.9
 21
19.388
  0
LINE
  8
0
 10
5.048
 11
5.19
 20
19.388
 21
19.857
  0
LINE
  8
0
 10
5.19
 11
5.421
 20
19.857
 21
20.289
  0
LINE
  8
0
 10
5.421
 11
5.732
 20
20.289
 21
20.668
  0
LINE
  8
0
 10
5.732
 11
6.111
 20
20.668
 21
20.979
  0
LINE
  8
0
 10
6.111
 11
6.543
 20
20.979
 21
21.21
  0
LINE
  8
0
 10
6.543
 11
7.012
 20
21.21
 21
21.352
  0
LINE
  8
0
 10
7.012
 11
7.5
 20
21.352
 21
21.4
  0
LINE
  8
0
 10
7.5
 11
7.988
 20
21.4
 21
21.352
  0
LINE
  8
0
 10
7.988
 11
8.457
 20
21.352
 21
21.21
  0
LINE
  8
0
 10
8.457
 11
8.889
 20
21.21
 21
20.979
  0
LINE
  8
0
 10
8.889
 11
9.268
 20
20.979
 21
20.668
  0
LINE
  8
0
 10
9.268
 11
9.579
 20
20.668
 21
20.289
  0
LINE
  8
0
 10
9.579
 11
9.81
 20
20.289
 21
19.857
  0
LINE
  8
0
 10
9.81
 11
9.952
 20
19.857
 21
19.388
  0
LINE
  8
0
 10
9.952
 11
10
 20
19.388
 21
18.9
  0
LINE
  8
0
 10
10
 11
9.952
 20
18.9
 21
18.412
  0
LINE
  8
0
 10
9.952
 11
9.81
 20
18.412
 21
17.943
  0
LINE
  8
0
 10
9.81
 11
9.579
 20
17.943
 21
17.511
  0
LINE
  8
0
 10
9.579
 11
9.268
 20
17.511
 21
17.132
  0
LINE
  8
0
 10
9.268
 11
8.889
 20
17.132
 21
16.821
  0
LINE
  8
0
 10
8.889
 11
8.457
 20
16.821
 21
16.59
  0
LINE
  8
0
 10
8.457
 11
7.988
 20
16.59
 21
16.448
  0
LINE
  8
0
 10
7.988
 11
7.5
 20
16.448
 21
16.4
  0
LINE
  8
0
 10
7.5
 11
7.012
 20
16.4
 21
16.448
  0
LINE
  8
0
 10
7.012
 11
6.543
 20
16.448
 21
16.59
  0
LINE
  8
0
 10
6.543
 11
6.111
 20
16.59
 21
16.821
  0
LINE
  8
0
 10
6.111
 11
5.732
 20
16.821
 21
17.132
  0
LINE
  8
0
 10
5.732
 11
5.421
 20
17.132
 21
17.511
  0
LINE
  8
0
 10
5.421
 11
5.19
 20
17.511
 21
17.943
  0
LINE
  8
0
 10
5.19
 11
5.048
 20
17.943
 21
18.412
  0
LINE
  8
0
 10
5.048
 11
5
 20
18.412
 21
18.9
  0
LINE
  8
0
 10
5
 11
5.048
 20
28.9
 21
29.388
  0
LINE
  8
0
 10
5.048
 11
5.19
 20
29.388
 21
29.857
  0
LINE
  8
0
 10
5.19
 11
5.421
 20
29.857
 21
30.289
  0
LINE
  8
0
 10
5.421
 11
5.732
 20
30.289
 21
30.668
  0
LINE
  8
0
 10
5.732
 11
6.111
 20
30.668
 21
30.979
  0
LINE
  8
0
 10
6.111
 11
6.543
 20
30.979
 21
31.21
  0
LINE
  8
0
 10
6.543
 11
7.012
 20
31.21
 21
31.352
  0
LINE
  8
0
 10
7.012
 11
7.5
 20
31.352
 21
31.4
  0
LINE
  8
0
 10
7.5
 11
7.988
 20
31.4
 21
31.352
  0
LINE
  8
0
 10
7.988
 11
8.457
 20
31.352
 21
31.21
  0
LINE
  8
0
 10
8.457
 11
8.889
 20
31.21
 21
30.979
  0
LINE
  8
0
 10
8.889
 11
9.268
 20
30.979
 21
30.668
  0
LINE
  8
0
 10
9.268
 11
9.579
 20
30.668
 21
30.289
  0
LINE
  8
0
 10
9.579
 11
9.81
 20
30.289
 21
29.857
  0
LINE
  8
0
 10
9.81
 11
9.952
 20
29.857
 21
29.388
  0
LINE
  8
0
 10
9.952
 11
10
 20
29.388
 21
28.9
  0
LINE
  8
0
 10
10
 11
9.952
 20
28.9
 21
28.412
  0
LINE
  8
0
 10
9.952
 11
9.81
 20
28.412
 21
27.943
  0
LINE
  8
0
 10
9.81
 11
9.579
 20
27.943
 21
27.511
  0
LINE
  8
0
 10
9.579
 11
9.268
 20
27.511
 21
27.132
  0
LINE
  8
0
 10
9.268
 11
8.889
 20
27.132
 21
26.821
  0
LINE
  8
0
 10
8.889
 11
8.457
 20
26.821
 21
26.59
  0
LINE
  8
0
 10
8.457
 11
7.988
 20
26.59
 21
26.448
  0
LINE
  8
0
 10
7.988
 11
7.5
 20
26.448
 21
26.4
  0
LINE
  8
0
 10
7.5
 11
7.012
 20
26.4
 21
26.448
  0
LINE
  8
0
 10
7.012
 11
6.543
 20
26.448
 21
26.59
  0
LINE
  8
0
 10
6.543
 11
6.111
 20
26.59
 21
26.821
  0
LINE
  8
0
 10
6.111
 11
5.732
 20
26.821
 21
27.132
  0
LINE
  8
0
 10
5.732
 11
5.421
 20
27.132
 21
27.511
  0
LINE
  8
0
 10
5.421
 11
5.19
 20
27.511
 21
27.943
  0
LINE
  8
0
 10
5.19
 11
5.048
 20
27.943
 21
28.412
  0
LINE
  8
0
 10
5.048
 11
5
 20
28.412
 21
28.9
  0
LINE
  8
0
 10
5
 11
5.058
 20
38.4
 21
38.879
  0
LINE
  8
0
 10
5.058
 11
5.229
 20
38.879
 21
39.329
  0
LINE
  8
0
 10
5.229
 11
5.503
 20
39.329
 21
39.726
  0
LINE
  8
0
 10
5.503
 11
5.864
 20
39.726
 21
40.046
  0
LINE
  8
0
 10
5.864
 11
6.291
 20
40.046
 21
40.27
  0
LINE
  8
0
 10
6.291
 11
6.759
 20
40.27
 21
40.385
  0
LINE
  8
0
 10
6.759
 11
7.241
 20
40.385
 21
40.385
  0
LINE
  8
0
 10
7.241
 11
7.709
 20
40.385
 21
40.27
  0
LINE
  8
0
 10
7.709
 11
8.136
 20
40.27
 21
40.046
  0
LINE
  8
0
 10
8.136
 11
8.497
 20
40.046
 21
39.726
  0
LINE
  8
0
 10
8.497
 11
8.771
 20
39.726
 21
39.329
  0
LINE
  8
0
 10
8.771
 11
8.942
 20
39.329
 21
38.879
  0
LINE
  8
0
 10
8.942
 11
9
 20
38.879
 21
38.4
  0
LINE
  8
0
 10
9
 11
8.942
 20
38.4
 21
37.921
  0
LINE
  8
0
 10
8.942
 11
8.771
 20
37.921
 21
37.471
  0
LINE
  8
0
 10
8.771
 11
8.497
 20
37.471
 21
37.074
  0
LINE
  8
0
 10
8.497
 11
8.136
 20
37.074
 21
36.754
  0
LINE
  8
0
 10
8.136
 11
7.709
 20
36.754
 21
36.53
  0
LINE
  8
0
 10
7.709
 11
7.241
 20
36.53
 21
36.415
  0
LINE
  8
0
 10
7.241
 11
6.759
 20
36.415
 21
36.415
  0
LINE
  8
0
 10
6.759
 11
6.291
 20
36.415
 21
36.53
  0
LINE
  8
0
 10
6.291
 11
5.864
 20
36.53
 21
36.754
  0
LINE
  8
0
 10
5.864
 11
5.503
 20
36.754
 21
37.074
  0
LINE
  8
0
 10
5.503
 11
5.229
 20
37.074
 21
37.471
  0
LINE
  8
0
 10
5.229
 11
5.058
 20
37.471
 21
37.921
  0
LINE
  8
0
 10
5.058
 11
5
 20
37.921
 21
38.4
  0
LINE
  8
0
 10
5
 11
5.058
 20
109.38
 21
109.859
  0
LINE
  8
0
 10
5.058
 11
5.229
 20
109.859
 21
110.309
  0
LINE
  8
0
 10
5.229
 11
5.503
 20
110.309
 21
110.706
  0
LINE
  8
0
 10
5.503
 11
5.864
 20
110.706
 21
111.026
  0
LINE
  8
0
 10
5.864
 11
6.291
 20
111.026
 21
111.25
  0
LINE
  8
0
 10
6.291
 11
6.759
 20
111.25
 21
111.365
  0
LINE
  8
0
 10
6.759
 11
7.241
 20
111.365
 21
111.365
  0
LINE
  8
0
 10
7.241
 11
7.709
 20
111.365
 21
111.25
  0
LINE
  8
0
 10
7.709
 11
8.136
 20
111.25
 21
111.026
  0
LINE
  8
0
 10
8.136
 11
8.497
 20
111.026
 21
110.706
  0
LINE
  8
0
 10
8.497
 11
8.771
 20
110.706
 21
110.309
  0
LINE
  8
0
 10
8.771
 11
8.942
 20
110.309
 21
109.859
  0
LINE
  8
0
 10
8.942
 11
9
 20
109.859
 21
109.38
  0
LINE
  8
0
 10
9
 11
8.942
 20
109.38
 21
108.901
  0
LINE
  8
0
 10
8.942
 11
8.771
 20
108.901
 21
108.451
  0
LINE
  8
0
 10
8.771
 11
8.497
 20
108.451
 21
108.054
  0
LINE
  8
0
 10
8.497
 11
8.136
 20
108.054
 21
107.734
  0
LINE
  8
0
 10
8.136
 11
7.709
 20
107.734
 21
107.51
  0
LINE
  8
0
 10
7.709
 11
7.241
 20
107.51
 21
107.395
  0
LINE
  8
0
 10
7.241
 11
6.759
 20
107.395
 21
107.395
  0
LINE
  8
0
 10
6.759
 11
6.291
 20
107.395
 21
107.51
  0
LINE
  8
0
 10
6.291
 11
5.864
 20
107.51
 21
107.734
  0
LINE
  8
0
 10
5.864
 11
5.503
 20
107.734
 21
108.054
  0
LINE
  8
0
 10
5.503
 11
5.229
 20
108.054
 21
108.451
  0
LINE
  8
0
 10
5.229
 11
5.058
 20
108.451
 21
108.901
  0
LINE
  8
0
 10
5.058
 11
5
 20
108.901
 21
109.38
  0
LINE
  8
0
 10
5
 11
5.036
 20
119.88
 21
120.378
  0
LINE
  8
0
 10
5.036
 11
5.142
 20
120.378
 21
120.866
  0
LINE
  8
0
 10
5.142
 11
5.316
 20
120.866
 21
121.334
  0
LINE
  8
0
 10
5.316
 11
5.556
 20
121.334
 21
121.772
  0
LINE
  8
0
 10
5.556
 11
5.855
 20
121.772
 21
122.172
  0
LINE
  8
0
 10
5.855
 11
6.208
 20
122.172
 21
122.525
  0
LINE
  8
0
 10
6.208
 11
6.608
 20
122.525
 21
122.824
  0
LINE
  8
0
 10
6.608
 11
7.046
 20
122.824
 21
123.064
  0
LINE
  8
0
 10
7.046
 11
7.514
 20
123.064
 21
123.238
  0
LINE
  8
0
 10
7.514
 11
8.002
 20
123.238
 21
123.344
  0
LINE
  8
0
 10
8.002
 11
8.5
 20
123.344
 21
123.38
  0
LINE
  8
0
 10
8.5
 11
8.998
 20
123.38
 21
123.344
  0
LINE
  8
0
 10
8.998
 11
9.486
 20
123.344
 21
123.238
  0
LINE
  8
0
 10
9.486
 11
9.954
 20
123.238
 21
123.064
  0
LINE
  8
0
 10
9.954
 11
10.392
 20
123.064
 21
122.824
  0
LINE
  8
0
 10
10.392
 11
10.792
 20
122.824
 21
122.525
  0
LINE
  8
0
 10
10.792
 11
11.145
 20
122.525
 21
122.172
  0
LINE
  8
0
 10
11.145
 11
11.444
 20
122.172
 21
121.772
  0
LINE
  8
0
 10
11.444
 11
11.684
 20
121.772
 21
121.334
  0
LINE
  8
0
 10
11.684
 11
11.858
 20
121.334
 21
120.866
  0
LINE
  8
0
 10
11.858
 11
11.964
 20
120.866
 21
120.378
  0
LINE
  8
0
 10
11.964
 11
12
 20
120.378
 21
119.88
  0
LINE
  8
0
 10
12
 11
11.964
 20
119.88
 21
119.382
  0
LINE
  8
0
 10
11.964
 11
11.858
 20
119.382
 21
118.894
  0
LINE
  8
0
 10
11.858
 11
11.684
 20
118.894
 21
118.426
  0
LINE
  8
0
 10
11.684
 11
11.444
 20
118.426
 21
117.988
  0
LINE
  8
0
 10
11.444
 11
11.145
 20
117.988
 21
117.588
  0
LINE
  8
0
 10
11.145
 11
10.792
 20
117.588
 21
117.235
  0
LINE
  8
0
 10
10.792
 11
10.392
 20
117.235
 21
116.936
  0
LINE
  8
0
 10
10.392
 11
9.954
 20
116.936
 21
116.696
  0
LINE
  8
0
 10
9.954
 11
9.486
 20
116.696
 21
116.522
  0
LINE
  8
0
 10
9.486
 11
8.998
 20
116.522
 21
116.416
  0
LINE
  8
0
 10
8.998
 11
8.5
 20
116.416
 21
116.38
  0
LINE
  8
0
 10
8.5
 11
8.002
 20
116.38
 21
116.416
  0
LINE
  8
0
 10
8.002
 11
7.514
 20
116.416
 21
116.522
  0
LINE
  8
0
 10
7.514
 11
7.046
 20
116.522
 21
116.696
  0
LINE
  8
0
 10
7.046
 11
6.608
 20
116.696
 21
116.936
  0
LINE
  8
0
 10
6.608
 11
6.208
 20
116.936
 21
117.235
  0
LINE
  8
0
 10
6.208
 11
5.855
 20
117.235
 21
117.588
  0
LINE
  8
0
 10
5.855
 11
5.556
 20
117.588
 21
117.988
  0
LINE
  8
0
 10
5.556
 11
5.316
 20
117.988
 21
118.426
  0
LINE
  8
0
 10
5.316
 11
5.142
 20
118.426
 21
118.894
  0
LINE
  8
0
 10
5.142
 11
5.036
 20
118.894
 21
119.382
  0
LINE
  8
0
 10
5.036
 11
5
 20
119.382
 21
119.88
  0
LINE
  8
0
 10
7.207
 11
7.265
 20
132.959
 21
133.435
  0
LINE
  8
0
 10
7.265
 11
7.537
 20
133.435
 21
133.829
  0
LINE
  8
0
 10
7.537
 11
7.961
 20
133.829
 21
134.051
  0
LINE
  8
0
 10
7.961
 11
8.439
 20
134.051
 21
134.051
  0
LINE
  8
0
 10
8.439
 11
8.863
 20
134.051
 21
133.829
  0
LINE
  8
0
 10
8.863
 11
9.135
 20
133.829
 21
133.435
  0
LINE
  8
0
 10
9.135
 11
9.193
 20
133.435
 21
132.959
  0
LINE
  8
0
 10
9.193
 11
9.023
 20
132.959
 21
132.512
  0
LINE
  8
0
 10
9.023
 11
8.665
 20
132.512
 21
132.195
  0
LINE
  8
0
 10
8.665
 11
8.2
 20
132.195
 21
132.08
  0
LINE
  8
0
 10
8.2
 11
7.735
 20
132.08
 21
132.195
  0
LINE
  8
0
 10
7.735
 11
7.377
 20
132.195
 21
132.512
  0
LINE
  8
0
 10
7.377
 11
7.207
 20
132.512
 21
132.959
  0
LINE
  8
0
 10
7.207
 11
7.265
 20
154.179
 21
154.655
  0
LINE
  8
0
 10
7.265
 11
7.537
 20
154.655
 21
155.049
  0
LINE
  8
0
 10
7.537
 11
7.961
 20
155.049
 21
155.271
  0
LINE
  8
0
 10
7.961
 11
8.439
 20
155.271
 21
155.271
  0
LINE
  8
0
 10
8.439
 11
8.863
 20
155.271
 21
155.049
  0
LINE
  8
0
 10
8.863
 11
9.135
 20
155.049
 21
154.655
  0
LINE
  8
0
 10
9.135
 11
9.193
 20
154.655
 21
154.179
  0
LINE
  8
0
 10
9.193
 11
9.023
 20
154.179
 21
153.732
  0
LINE
  8
0
 10
9.023
 11
8.665
 20
153.732
 21
153.415
  0
LINE
  8
0
 10
8.665
 11
8.2
 20
153.415
 21
153.3
  0
LINE
  8
0
 10
8.2
 11
7.735
 20
153.3
 21
153.415
  0
LINE
  8
0
 10
7.735
 11
7.377
 20
153.415
 21
153.732
  0
LINE
  8
0
 10
7.377
 11
7.207
 20
153.732
 21
154.179
  0
LINE
  8
0
 10
12.56
 11
12.655
 20
67.01
 21
67.488
  0
LINE
  8
0
 10
12.655
 11
12.926
 20
67.488
 21
67.894
  0
LINE
  8
0
 10
12.926
 11
13.332
 20
67.894
 21
68.165
  0
LINE
  8
0
 10
13.332
 11
13.81
 20
68.165
 21
68.26
  0
LINE
  8
0
 10
13.81
 11
14.288
 20
68.26
 21
68.165
  0
LINE
  8
0
 10
14.288
 11
14.694
 20
68.165
 21
67.894
  0
LINE
  8
0
 10
14.694
 11
14.965
 20
67.894
 21
67.488
  0
LINE
  8
0
 10
14.965
 11
15.06
 20
67.488
 21
67.01
  0
LINE
  8
0
 10
15.06
 11
14.965
 20
67.01
 21
66.532
  0
LINE
  8
0
 10
14.965
 11
14.694
 20
66.532
 21
66.126
  0
LINE
  8
0
 10
14.694
 11
14.288
 20
66.126
 21
65.855
  0
LINE
  8
0
 10
14.288
 11
13.81
 20
65.855
 21
65.76
  0
LINE
  8
0
 10
13.81
 11
13.332
 20
65.76
 21
65.855
  0
LINE
  8
0
 10
13.332
 11
12.926
 20
65.855
 21
66.126
  0
LINE
  8
0
 10
12.926
 11
12.655
 20
66.126
 21
66.532
  0
LINE
  8
0
 10
12.655
 11
12.56
 20
66.532
 21
67.01
  0
LINE
  8
0
 10
12.56
 11
12.655
 20
110.19
 21
110.668
  0
LINE
  8
0
 10
12.655
 11
12.926
 20
110.668
 21
111.074
  0
LINE
  8
0
 10
12.926
 11
13.332
 20
111.074
 21
111.345
  0
LINE
  8
0
 10
13.332
 11
13.81
 20
111.345
 21
111.44
  0
LINE
  8
0
 10
13.81
 11
14.288
 20
111.44
 21
111.345
  0
LINE
  8
0
 10
14.288
 11
14.694
 20
111.345
 21
111.074
  0
LINE
  8
0
 10
14.694
 11
14.965
 20
111.074
 21
110.668
  0
LINE
  8
0
 10
14.965
 11
15.06
 20
110.668
 21
110.19
  0
LINE
  8
0
 10
15.06
 11
14.965
 20
110.19
 21
109.712
  0
LINE
  8
0
 10
14.965
 11
14.694
 20
109.712
 21
109.306
  0
LINE
  8
0
 10
14.694
 11
14.288
 20
109.306
 21
109.035
  0
LINE
  8
0
 10
14.288
 11
13.81
 20
109.035
 21
108.94
  0
LINE
  8
0
 10
13.81
 11
13.332
 20
108.94
 21
109.035
  0
LINE
  8
0
 10
13.332
 11
12.926
 20
109.035
 21
109.306
  0
LINE
  8
0
 10
12.926
 11
12.655
 20
109.306
 21
109.712
  0
LINE
  8
0
 10
12.655
 11
12.56
 20
109.712
 21
110.19
  0
LINE
  8
0
 10
25.129
 11
25.129
 20
7.961
 21
8.439
  0
LINE
  8
0
 10
25.129
 11
25.351
 20
8.439
 21
8.863
  0
LINE
  8
0
 10
25.351
 11
25.745
 20
8.863
 21
9.135
  0
LINE
  8
0
 10
25.745
 11
26.221
 20
9.135
 21
9.193
  0
LINE
  8
0
 10
26.221
 11
26.668
 20
9.193
 21
9.023
  0
LINE
  8
0
 10
26.668
 11
26.985
 20
9.023
 21
8.665
  0
LINE
  8
0
 10
26.985
 11
27.1
 20
8.665
 21
8.2
  0
LINE
  8
0
 10
27.1
 11
26.985
 20
8.2
 21
7.735
  0
LINE
  8
0
 10
26.985
 11
26.668
 20
7.735
 21
7.377
  0
LINE
  8
0
 10
26.668
 11
26.221
 20
7.377
 21
7.207
  0
LINE
  8
0
 10
26.221
 11
25.745
 20
7.207
 21
7.265
  0
LINE
  8
0
 10
25.745
 11
25.351
 20
7.265
 21
7.537
  0
LINE
  8
0
 10
25.351
 11
25.129
 20
7.537
 21
7.961
  0
LINE
  8
0
 10
46.349
 11
46.349
 20
7.961
 21
8.439
  0
LINE
  8
0
 10
46.349
 11
46.571
 20
8.439
 21
8.863
  0
LINE
  8
0
 10
46.571
 11
46.965
 20
8.863
 21
9.135
  0
LINE
  8
0
 10
46.965
 11
47.441
 20
9.135
 21
9.193
  0
LINE
  8
0
 10
47.441
 11
47.888
 20
9.193
 21
9.023
  0
LINE
  8
0
 10
47.888
 11
48.205
 20
9.023
 21
8.665
  0
LINE
  8
0
 10
48.205
 11
48.32
 20
8.665
 21
8.2
  0
LINE
  8
0
 10
48.32
 11
48.205
 20
8.2
 21
7.735
  0
LINE
  8
0
 10
48.205
 11
47.888
 20
7.735
 21
7.377
  0
LINE
  8
0
 10
47.888
 11
47.441
 20
7.377
 21
7.207
  0
LINE
  8
0
 10
47.441
 11
46.965
 20
7.207
 21
7.265
  0
LINE
  8
0
 10
46.965
 11
46.571
 20
7.265
 21
7.537
  0
LINE
  8
0
 10
46.571
 11
46.349
 20
7.537
 21
7.961
  0
LINE
  8
0
 10
106.54
 11
106.635
 20
67.01
 21
67.488
  0
LINE
  8
0
 10
106.635
 11
106.906
 20
67.488
 21
67.894
  0
LINE
  8
0
 10
106.906
 11
107.312
 20
67.894
 21
68.165
  0
LINE
  8
0
 10
107.312
 11
107.79
 20
68.165
 21
68.26
  0
LINE
  8
0
 10
107.79
 11
108.268
 20
68.26
 21
68.165
  0
LINE
  8
0
 10
108.268
 11
108.674
 20
68.165
 21
67.894
  0
LINE
  8
0
 10
108.674
 11
108.945
 20
67.894
 21
67.488
  0
LINE
  8
0
 10
108.945
 11
109.04
 20
67.488
 21
67.01
  0
LINE
  8
0
 10
109.04
 11
108.945
 20
67.01
 21
66.532
  0
LINE
  8
0
 10
108.945
 11
108.674
 20
66.532
 21
66.126
  0
LINE
  8
0
 10
108.674
 11
108.268
 20
66.126
 21
65.855
  0
LINE
  8
0
 10
108.268
 11
107.79
 20
65.855
 21
65.76
  0
LINE
  8
0
 10
107.79
 11
107.312
 20
65.76
 21
65.855
  0
LINE
  8
0
 10
107.312
 11
106.906
 20
65.855
 21
66.126
  0
LINE
  8
0
 10
106.906
 11
106.635
 20
66.126
 21
66.532
  0
LINE
  8
0
 10
106.635
 11
106.54
 20
66.532
 21
67.01
  0
LINE
  8
0
 10
106.54
 11
106.635
 20
110.19
 21
110.668
  0
LINE
  8
0
 10
106.635
 11
106.906
 20
110.668
 21
111.074
  0
LINE
  8
0
 10
106.906
 11
107.312
 20
111.074
 21
111.345
  0
LINE
  8
0
 10
107.312
 11
107.79
 20
111.345
 21
111.44
  0
LINE
  8
0
 10
107.79
 11
108.268
 20
111.44
 21
111.345
  0
LINE
  8
0
 10
108.268
 11
108.674
 20
111.345
 21
111.074
  0
LINE
  8
0
 10
108.674
 11
108.945
 20
111.074
 21
110.668
  0
LINE
  8
0
 10
108.945
 11
109.04
 20
110.668
 21
110.19
  0
LINE
  8
0
 10
109.04
 11
108.945
 20
110.19
 21
109.712
  0
LINE
  8
0
 10
108.945
 11
108.674
 20
109.712
 21
109.306
  0
LINE
  8
0
 10
108.674
 11
108.268
 20
109.306
 21
109.035
  0
LINE
  8
0
 10
108.268
 11
107.79
 20
109.035
 21
108.94
  0
LINE
  8
0
 10
107.79
 11
107.312
 20
108.94
 21
109.035
  0
LINE
  8
0
 10
107.312
 11
106.906
 20
109.035
 21
109.306
  0
LINE
  8
0
 10
106.906
 11
106.635
 20
109.306
 21
109.712
  0
LINE
  8
0
 10
106.635
 11
106.54
 20
109.712
 21
110.19
  0
LINE
  8
0
 10
179.368
 11
179.368
 20
25.154
 21
25.646
  0
LINE
  8
0
 10
179.368
 11
179.513
 20
25.646
 21
26.116
  0
LINE
  8
0
 10
179.513
 11
179.79
 20
26.116
 21
26.522
  0
LINE
  8
0
 10
179.79
 11
180.175
 20
26.522
 21
26.829
  0
LINE
  8
0
 10
180.175
 11
180.633
 20
26.829
 21
27.009
  0
LINE
  8
0
 10
180.633
 11
181.123
 20
27.009
 21
27.045
  0
LINE
  8
0
 10
181.123
 11
181.603
 20
27.045
 21
26.936
  0
LINE
  8
0
 10
181.603
 11
182.029
 20
26.936
 21
26.69
  0
LINE
  8
0
 10
182.029
 11
182.363
 20
26.69
 21
26.329
  0
LINE
  8
0
 10
182.363
 11
182.577
 20
26.329
 21
25.886
  0
LINE
  8
0
 10
182.577
 11
182.65
 20
25.886
 21
25.4
  0
LINE
  8
0
 10
182.65
 11
182.577
 20
25.4
 21
24.914
  0
LINE
  8
0
 10
182.577
 11
182.363
 20
24.914
 21
24.471
  0
LINE
  8
0
 10
182.363
 11
182.029
 20
24.471
 21
24.11
  0
LINE
  8
0
 10
182.029
 11
181.603
 20
24.11
 21
23.864
  0
LINE
  8
0
 10
181.603
 11
181.123
 20
23.864
 21
23.755
  0
LINE
  8
0
 10
181.123
 11
180.633
 20
23.755
 21
23.791
  0
LINE
  8
0
 10
180.633
 11
180.175
 20
23.791
 21
23.971
  0
LINE
  8
0
 10
180.175
 11
179.79
 20
23.971
 21
24.278
  0
LINE
  8
0
 10
179.79
 11
179.513
 20
24.278
 21
24.684
  0
LINE
  8
0
 10
179.513
 11
179.368
 20
24.684
 21
25.154
  0
LINE
  8
0
 10
179.368
 11
179.368
 20
109.154
 21
109.646
  0
LINE
  8
0
 10
179.368
 11
179.513
 20
109.646
 21
110.116
  0
LINE
  8
0
 10
179.513
 11
179.79
 20
110.116
 21
110.522
  0
LINE
  8
0
 10
179.79
 11
180.175
 20
110.522
 21
110.829
  0
LINE
  8
0
 10
180.175
 11
180.633
 20
110.829
 21
111.009
  0
LINE
  8
0
 10
180.633
 11
181.123
 20
111.009
 21
111.045
  0
LINE
  8
0
 10
181.123
 11
181.603
 20
111.045
 21
110.936
  0
LINE
  8
0
 10
181.603
 11
182.029
 20
110.936
 21
110.69
  0
LINE
  8
0
 10
182.029
 11
182.363
 20
110.69
 21
110.329
  0
LINE
  8
0
 10
182.363
 11
182.577
 20
110.329
 21
109.886
  0
LINE
  8
0
 10
182.577
 11
182.65
 20
109.886
 21
109.4
  0
LINE
  8
0
 10
182.65
 11
182.577
 20
109.4
 21
108.914
  0
LINE
  8
0
 10
182.577
 11
182.363
 20
108.914
 21
108.471
  0
LINE
  8
0
 10
182.363
 11
182.029
 20
108.471
 21
108.11
  0
LINE
  8
0
 10
182.029
 11
181.603
 20
108.11
 21
107.864
  0
LINE
  8
0
 10
181.603
 11
181.123
 20
107.864
 21
107.755
  0
LINE
  8
0
 10
181.123
 11
180.633
 20
107.755
 21
107.791
  0
LINE
  8
0
 10
180.633
 11
180.175
 20
107.791
 21
107.971
  0
LINE
  8
0
 10
180.175
 11
179.79
 20
107.971
 21
108.278
  0
LINE
  8
0
 10
179.79
 11
179.513
 20
108.278
 21
108.684
  0
LINE
  8
0
 10
179.513
 11
179.368
 20
108.684
 21
109.154
  0
LINE
  8
0
 10
246.08
 11
246.121
 20
8
 21
8.494
  0
LINE
  8
0
 10
246.121
 11
246.243
 20
8.494
 21
8.974
  0
LINE
  8
0
 10
246.243
 11
246.442
 20
8.974
 21
9.428
  0
LINE
  8
0
 10
246.442
 11
246.713
 20
9.428
 21
9.843
  0
LINE
  8
0
 10
246.713
 11
247.048
 20
9.843
 21
10.207
  0
LINE
  8
0
 10
247.048
 11
247.439
 20
10.207
 21
10.511
  0
LINE
  8
0
 10
247.439
 11
247.875
 20
10.511
 21
10.747
  0
LINE
  8
0
 10
247.875
 11
248.344
 20
10.747
 21
10.908
  0
LINE
  8
0
 10
248.344
 11
248.832
 20
10.908
 21
10.99
  0
LINE
  8
0
 10
248.832
 11
249.328
 20
10.99
 21
10.99
  0
LINE
  8
0
 10
249.328
 11
249.816
 20
10.99
 21
10.908
  0
LINE
  8
0
 10
249.816
 11
250.285
 20
10.908
 21
10.747
  0
LINE
  8
0
 10
250.285
 11
250.721
 20
10.747
 21
10.511
  0
LINE
  8
0
 10
250.721
 11
251.112
 20
10.511
 21
10.207
  0
LINE
  8
0
 10
251.112
 11
251.447
 20
10.207
 21
9.843
  0
LINE
  8
0
 10
251.447
 11
251.718
 20
9.843
 21
9.428
  0
LINE
  8
0
 10
251.718
 11
251.917
 20
9.428
 21
8.974
  0
LINE
  8
0
 10
251.917
 11
252.039
 20
8.974
 21
8.494
  0
LINE
  8
0
 10
252.039
 11
252.08
 20
8.494
 21
8
  0
LINE
  8
0
 10
252.08
 11
252.039
 20
8
 21
7.506
  0
LINE
  8
0
 10
252.039
 11
251.917
 20
7.506
 21
7.026
  0
LINE
  8
0
 10
251.917
 11
251.718
 20
7.026
 21
6.572
  0
LINE
  8
0
 10
251.718
 11
251.447
 20
6.572
 21
6.157
  0
LINE
  8
0
 10
251.447
 11
251.112
 20
6.157
 21
5.793
  0
LINE
  8
0
 10
251.112
 11
250.721
 20
5.793
 21
5.489
  0
LINE
  8
0
 10
250.721
 11
250.285
 20
5.489
 21
5.253
  0
LINE
  8
0
 10
250.285
 11
249.816
 20
5.253
 21
5.092
  0
LINE
  8
0
 10
249.816
 11
249.328
 20
5.092
 21
5.01
  0
LINE
  8
0
 10
249.328
 11
248.832
 20
5.01
 21
5.01
  0
LINE
  8
0
 10
248.832
 11
248.344
 20
5.01
 21
5.092
  0
LINE
  8
0
 10
248.344
 11
247.875
 20
5.092
 21
5.253
  0
LINE
  8
0
 10
247.875
 11
247.439
 20
5.253
 21
5.489
  0
LINE
  8
0
 10
247.439
 11
247.048
 20
5.489
 21
5.793
  0
LINE
  8
0
 10
247.048
 11
246.713
 20
5.793
 21
6.157
  0
LINE
  8
0
 10
246.713
 11
246.442
 20
6.157
 21
6.572
  0
LINE
  8
0
 10
246.442
 11
246.243
 20
6.572
 21
7.026
  0
LINE
  8
0
 10
246.243
 11
246.121
 20
7.026
 21
7.506
  0
LINE
  8
0
 10
246.121
 11
246.08
 20
7.506
 21
8
  0
LINE
  8
0
 10
258.58
 11
258.638
 20
7
 21
7.479
  0
LINE
  8
0
 10
258.638
 11
258.809
 20
7.479
 21
7.929
  0
LINE
  8
0
 10
258.809
 11
259.083
 20
7.929
 21
8.326
  0
LINE
  8
0
 10
259.083
 11
259.444
 20
8.326
 21
8.646
  0
LINE
  8
0
 10
259.444
 11
259.871
 20
8.646
 21
8.87
  0
LINE
  8
0
 10
259.871
 11
260.339
 20
8.87
 21
8.985
  0
LINE
  8
0
 10
260.339
 11
260.821
 20
8.985
 21
8.985
  0
LINE
  8
0
 10
260.821
 11
261.289
 20
8.985
 21
8.87
  0
LINE
  8
0
 10
261.289
 11
261.716
 20
8.87
 21
8.646
  0
LINE
  8
0
 10
261.716
 11
262.077
 20
8.646
 21
8.326
  0
LINE
  8
0
 10
262.077
 11
262.351
 20
8.326
 21
7.929
  0
LINE
  8
0
 10
262.351
 11
262.522
 20
7.929
 21
7.479
  0
LINE
  8
0
 10
262.522
 11
262.58
 20
7.479
 21
7
  0
LINE
  8
0
 10
262.58
 11
262.522
 20
7
 21
6.521
  0
LINE
  8
0
 10
262.522
 11
262.351
 20
6.521
 21
6.071
  0
LINE
  8
0
 10
262.351
 11
262.077
 20
6.071
 21
5.674
  0
LINE
  8
0
 10
262.077
 11
261.716
 20
5.674
 21
5.354
  0
LINE
  8
0
 10
261.716
 11
261.289
 20
5.354
 21
5.13
  0
LINE
  8
0
 10
261.289
 11
260.821
 20
5.13
 21
5.015
  0
LINE
  8
0
 10
260.821
 11
260.339
 20
5.015
 21
5.015
  0
LINE
  8
0
 10
260.339
 11
259.871
 20
5.015
 21
5.13
  0
LINE
  8
0
 10
259.871
 11
259.444
 20
5.13
 21
5.354
  0
LINE
  8
0
 10
259.444
 11
259.083
 20
5.354
 21
5.674
  0
LINE
  8
0
 10
259.083
 11
258.809
 20
5.674
 21
6.071
  0
LINE
  8
0
 10
258.809
 11
258.638
 20
6.071
 21
6.521
  0
LINE
  8
0
 10
258.638
 11
258.58
 20
6.521
 21
7
  0
LINE
  8
0
 10
272.709
 11
272.709
 20
7.961
 21
8.439
  0
LINE
  8
0
 10
272.709
 11
272.931
 20
8.439
 21
8.863
  0
LINE
  8
0
 10
272.931
 11
273.325
 20
8.863
 21
9.135
  0
LINE
  8
0
 10
273.325
 11
273.801
 20
9.135
 21
9.193
  0
LINE
  8
0
 10
273.801
 11
274.248
 20
9.193
 21
9.023
  0
LINE
  8
0
 10
274.248
 11
274.565
 20
9.023
 21
8.665
  0
LINE
  8
0
 10
274.565
 11
274.68
 20
8.665
 21
8.2
  0
LINE
  8
0
 10
274.68
 11
274.565
 20
8.2
 21
7.735
  0
LINE
  8
0
 10
274.565
 11
274.248
 20
7.735
 21
7.377
  0
LINE
  8
0
 10
274.248
 11
273.801
 20
7.377
 21
7.207
  0
LINE
  8
0
 10
273.801
 11
273.325
 20
7.207
 21
7.265
  0
LINE
  8
0
 10
273.325
 11
272.931
 20
7.265
 21
7.537
  0
LINE
  8
0
 10
272.931
 11
272.709
 20
7.537
 21
7.961
  0
LINE
  8
0
 10
293.929
 11
293.929
 20
7.961
 21
8.439
  0
LINE
  8
0
 10
293.929
 11
294.151
 20
8.439
 21
8.863
  0
LINE
  8
0
 10
294.151
 11
294.545
 20
8.863
 21
9.135
  0
LINE
  8
0
 10
294.545
 11
295.021
 20
9.135
 21
9.193
  0
LINE
  8
0
 10
295.021
 11
295.468
 20
9.193
 21
9.023
  0
LINE
  8
0
 10
295.468
 11
295.785
 20
9.023
 21
8.665
  0
LINE
  8
0
 10
295.785
 11
295.9
 20
8.665
 21
8.2
  0
LINE
  8
0
 10
295.9
 11
295.785
 20
8.2
 21
7.735
  0
LINE
  8
0
 10
295.785
 11
295.468
 20
7.735
 21
7.377
  0
LINE
  8
0
 10
295.468
 11
295.021
 20
7.377
 21
7.207
  0
LINE
  8
0
 10
295.021
 11
294.545
 20
7.207
 21
7.265
  0
LINE
  8
0
 10
294.545
 11
294.151
 20
7.265
 21
7.537
  0
LINE
  8
0
 10
294.151
 11
293.929
 20
7.537
 21
7.961
  0
LINE
  8
0
 10
305.368
 11
305.368
 20
25.154
 21
25.646
  0
LINE
  8
0
 10
305.368
 11
305.513
 20
25.646
 21
26.116
  0
LINE
  8
0
 10
305.513
 11
305.79
 20
26.116
 21
26.522
  0
LINE
  8
0
 10
305.79
 11
306.175
 20
26.522
 21
26.829
  0
LINE
  8
0
 10
306.175
 11
306.633
 20
26.829
 21
27.009
  0
LINE
  8
0
 10
306.633
 11
307.123
 20
27.009
 21
27.045
  0
LINE
  8
0
 10
307.123
 11
307.603
 20
27.045
 21
26.936
  0
LINE
  8
0
 10
307.603
 11
308.029
 20
26.936
 21
26.69
  0
LINE
  8
0
 10
308.029
 11
308.363
 20
26.69
 21
26.329
  0
LINE
  8
0
 10
308.363
 11
308.577
 20
26.329
 21
25.886
  0
LINE
  8
0
 10
308.577
 11
308.65
 20
25.886
 21
25.4
  0
LINE
  8
0
 10
308.65
 11
308.577
 20
25.4
 21
24.914
  0
LINE
  8
0
 10
308.577
 11
308.363
 20
24.914
 21
24.471
  0
LINE
  8
0
 10
308.363
 11
308.029
 20
24.471
 21
24.11
  0
LINE
  8
0
 10
308.029
 11
307.603
 20
24.11
 21
23.864
  0
LINE
  8
0
 10
307.603
 11
307.123
 20
23.864
 21
23.755
  0
LINE
  8
0
 10
307.123
 11
306.633
 20
23.755
 21
23.791
  0
LINE
  8
0
 10
306.633
 11
306.175
 20
23.791
 21
23.971
  0
LINE
  8
0
 10
306.175
 11
305.79
 20
23.971
 21
24.278
  0
LINE
  8
0
 10
305.79
 11
305.513
 20
24.278
 21
24.684
  0
LINE
  8
0
 10
305.513
 11
305.368
 20
24.684
 21
25.154
  0
LINE
  8
0
 10
305.368
 11
305.368
 20
109.154
 21
109.646
  0
LINE
  8
0
 10
305.368
 11
305.513
 20
109.646
 21
110.116
  0
LINE
  8
0
 10
305.513
 11
305.79
 20
110.116
 21
110.522
  0
LINE
  8
0
 10
305.79
 11
306.175
 20
110.522
 21
110.829
  0
LINE
  8
0
 10
306.175
 11
306.633
 20
110.829
 21
111.009
  0
LINE
  8
0
 10
306.633
 11
307.123
 20
111.009
 21
111.045
  0
LINE
  8
0
 10
307.123
 11
307.603
 20
111.045
 21
110.936
  0
LINE
  8
0
 10
307.603
 11
308.029
 20
110.936
 21
110.69
  0
LINE
  8
0
 10
308.029
 11
308.363
 20
110.69
 21
110.329
  0
LINE
  8
0
 10
308.363
 11
308.577
 20
110.329
 21
109.886
  0
LINE
  8
0
 10
308.577
 11
308.65
 20
109.886
 21
109.4
  0
LINE
  8
0
 10
308.65
 11
308.577
 20
109.4
 21
108.914
  0
LINE
  8
0
 10
308.577
 11
308.363
 20
108.914
 21
108.471
  0
LINE
  8
0
 10
308.363
 11
308.029
 20
108.471
 21
108.11
  0
LINE
  8
0
 10
308.029
 11
307.603
 20
108.11
 21
107.864
  0
LINE
  8
0
 10
307.603
 11
307.123
 20
107.864
 21
107.755
  0
LINE
  8
0
 10
307.123
 11
306.633
 20
107.755
 21
107.791
  0
LINE
  8
0
 10
306.633
 11
306.175
 20
107.791
 21
107.971
  0
LINE
  8
0
 10
306.175
 11
305.79
 20
107.971
 21
108.278
  0
LINE
  8
0
 10
305.79
 11
305.513
 20
108.278
 21
108.684
  0
LINE
  8
0
 10
305.513
 11
305.368
 20
108.684
 21
109.154
  0
ENDSEC
  0
SECTION
  2
OBJECTS
  0
DICTIONARY
  0
ENDSEC
  0
EOF
