  0
SECTION
  2
BLOCKS
  0
ENDSEC
  0
SECTION
  2
ENTITIES
  0
LINE
  8
0
 10
-214.411
 11
-214.411
 20
59.961
 21
60.439
  0
LINE
  8
0
 10
-214.411
 11
-214.189
 20
60.439
 21
60.863
  0
LINE
  8
0
 10
-214.189
 11
-213.795
 20
60.863
 21
61.135
  0
LINE
  8
0
 10
-213.795
 11
-213.319
 20
61.135
 21
61.193
  0
LINE
  8
0
 10
-213.319
 11
-212.872
 20
61.193
 21
61.023
  0
LINE
  8
0
 10
-212.872
 11
-212.555
 20
61.023
 21
60.665
  0
LINE
  8
0
 10
-212.555
 11
-212.44
 20
60.665
 21
60.2
  0
LINE
  8
0
 10
-212.44
 11
-212.555
 20
60.2
 21
59.735
  0
LINE
  8
0
 10
-212.555
 11
-212.872
 20
59.735
 21
59.377
  0
LINE
  8
0
 10
-212.872
 11
-213.319
 20
59.377
 21
59.207
  0
LINE
  8
0
 10
-213.319
 11
-213.795
 20
59.207
 21
59.265
  0
LINE
  8
0
 10
-213.795
 11
-214.189
 20
59.265
 21
59.537
  0
LINE
  8
0
 10
-214.189
 11
-214.411
 20
59.537
 21
59.961
  0
LINE
  8
0
 10
-205.242
 11
-205.242
 20
-0.246
 21
0.246
  0
LINE
  8
0
 10
-205.242
 11
-205.182
 20
0.246
 21
0.735
  0
LINE
  8
0
 10
-205.182
 11
-205.062
 20
0.735
 21
1.213
  0
LINE
  8
0
 10
-205.062
 11
-204.884
 20
1.213
 21
1.672
  0
LINE
  8
0
 10
-204.884
 11
-204.651
 20
1.672
 21
2.106
  0
LINE
  8
0
 10
-204.651
 11
-204.366
 20
2.106
 21
2.508
  0
LINE
  8
0
 10
-204.366
 11
-204.035
 20
2.508
 21
2.872
  0
LINE
  8
0
 10
-204.035
 11
-203.661
 20
2.872
 21
3.192
  0
LINE
  8
0
 10
-203.661
 11
-203.25
 20
3.192
 21
3.464
  0
LINE
  8
0
 10
-203.25
 11
-202.809
 20
3.464
 21
3.684
  0
LINE
  8
0
 10
-202.809
 11
-202.345
 20
3.684
 21
3.847
  0
LINE
  8
0
 10
-202.345
 11
-201.864
 20
3.847
 21
3.953
  0
LINE
  8
0
 10
-201.864
 11
-201.373
 20
3.953
 21
3.998
  0
LINE
  8
0
 10
-201.373
 11
-200.881
 20
3.998
 21
3.983
  0
LINE
  8
0
 10
-200.881
 11
-200.394
 20
3.983
 21
3.907
  0
LINE
  8
0
 10
-200.394
 11
-199.921
 20
3.907
 21
3.773
  0
LINE
  8
0
 10
-199.921
 11
-199.467
 20
3.773
 21
3.581
  0
LINE
  8
0
 10
-199.467
 11
-199.041
 20
3.581
 21
3.334
  0
LINE
  8
0
 10
-199.041
 11
-198.648
 20
3.334
 21
3.038
  0
LINE
  8
0
 10
-198.648
 11
-198.294
 20
3.038
 21
2.695
  0
LINE
  8
0
 10
-198.294
 11
-197.985
 20
2.695
 21
2.311
  0
LINE
  8
0
 10
-197.985
 11
-197.726
 20
2.311
 21
1.892
  0
LINE
  8
0
 10
-197.726
 11
-197.52
 20
1.892
 21
1.445
  0
LINE
  8
0
 10
-197.52
 11
-197.371
 20
1.445
 21
0.976
  0
LINE
  8
0
 10
-197.371
 11
-197.28
 20
0.976
 21
0.492
  0
LINE
  8
0
 10
-197.28
 11
-197.25
 20
0.492
 21
0
  0
LINE
  8
0
 10
-197.25
 11
-197.28
 20
0
 21
-0.492
  0
LINE
  8
0
 10
-197.28
 11
-197.371
 20
-0.492
 21
-0.976
  0
LINE
  8
0
 10
-197.371
 11
-197.52
 20
-0.976
 21
-1.445
  0
LINE
  8
0
 10
-197.52
 11
-197.726
 20
-1.445
 21
-1.892
  0
LINE
  8
0
 10
-197.726
 11
-197.985
 20
-1.892
 21
-2.311
  0
LINE
  8
0
 10
-197.985
 11
-198.294
 20
-2.311
 21
-2.695
  0
LINE
  8
0
 10
-198.294
 11
-198.648
 20
-2.695
 21
-3.038
  0
LINE
  8
0
 10
-198.648
 11
-199.041
 20
-3.038
 21
-3.334
  0
LINE
  8
0
 10
-199.041
 11
-199.467
 20
-3.334
 21
-3.581
  0
LINE
  8
0
 10
-199.467
 11
-199.921
 20
-3.581
 21
-3.773
  0
LINE
  8
0
 10
-199.921
 11
-200.394
 20
-3.773
 21
-3.907
  0
LINE
  8
0
 10
-200.394
 11
-200.881
 20
-3.907
 21
-3.983
  0
LINE
  8
0
 10
-200.881
 11
-201.373
 20
-3.983
 21
-3.998
  0
LINE
  8
0
 10
-201.373
 11
-201.864
 20
-3.998
 21
-3.953
  0
LINE
  8
0
 10
-201.864
 11
-202.345
 20
-3.953
 21
-3.847
  0
LINE
  8
0
 10
-202.345
 11
-202.809
 20
-3.847
 21
-3.684
  0
LINE
  8
0
 10
-202.809
 11
-203.25
 20
-3.684
 21
-3.464
  0
LINE
  8
0
 10
-203.25
 11
-203.661
 20
-3.464
 21
-3.192
  0
LINE
  8
0
 10
-203.661
 11
-204.035
 20
-3.192
 21
-2.872
  0
LINE
  8
0
 10
-204.035
 11
-204.366
 20
-2.872
 21
-2.508
  0
LINE
  8
0
 10
-204.366
 11
-204.651
 20
-2.508
 21
-2.106
  0
LINE
  8
0
 10
-204.651
 11
-204.884
 20
-2.106
 21
-1.672
  0
LINE
  8
0
 10
-204.884
 11
-205.062
 20
-1.672
 21
-1.213
  0
LINE
  8
0
 10
-205.062
 11
-205.182
 20
-1.213
 21
-0.735
  0
LINE
  8
0
 10
-205.182
 11
-205.242
 20
-0.735
 21
-0.246
  0
LINE
  8
0
 10
-160.543
 11
-160.485
 20
195.569
 21
196.045
  0
LINE
  8
0
 10
-160.485
 11
-160.213
 20
196.045
 21
196.439
  0
LINE
  8
0
 10
-160.213
 11
-159.789
 20
196.439
 21
196.661
  0
LINE
  8
0
 10
-159.789
 11
-159.311
 20
196.661
 21
196.661
  0
LINE
  8
0
 10
-159.311
 11
-158.887
 20
196.661
 21
196.439
  0
LINE
  8
0
 10
-158.887
 11
-158.615
 20
196.439
 21
196.045
  0
LINE
  8
0
 10
-158.615
 11
-158.557
 20
196.045
 21
195.569
  0
LINE
  8
0
 10
-158.557
 11
-158.727
 20
195.569
 21
195.122
  0
LINE
  8
0
 10
-158.727
 11
-159.085
 20
195.122
 21
194.805
  0
LINE
  8
0
 10
-159.085
 11
-159.55
 20
194.805
 21
194.69
  0
LINE
  8
0
 10
-159.55
 11
-160.015
 20
194.69
 21
194.805
  0
LINE
  8
0
 10
-160.015
 11
-160.373
 20
194.805
 21
195.122
  0
LINE
  8
0
 10
-160.373
 11
-160.543
 20
195.122
 21
195.569
  0
LINE
  8
0
 10
-233.75
 11
-233.75
 20
-166
 21
166
  0
LINE
  8
0
 10
-233.75
 11
-233.56
 20
166
 21
170.358
  0
LINE
  8
0
 10
-233.56
 11
-232.99
 20
170.358
 21
174.682
  0
LINE
  8
0
 10
-232.99
 11
-232.046
 20
174.682
 21
178.941
  0
LINE
  8
0
 10
-232.046
 11
-230.735
 20
178.941
 21
183.101
  0
LINE
  8
0
 10
-230.735
 11
-229.065
 20
183.101
 21
187.131
  0
LINE
  8
0
 10
-229.065
 11
-227.051
 20
187.131
 21
191
  0
LINE
  8
0
 10
-227.051
 11
-224.708
 20
191
 21
194.679
  0
LINE
  8
0
 10
-224.708
 11
-222.052
 20
194.679
 21
198.139
  0
LINE
  8
0
 10
-222.052
 11
-219.105
 20
198.139
 21
201.355
  0
LINE
  8
0
 10
-219.105
 11
-215.889
 20
201.355
 21
204.302
  0
LINE
  8
0
 10
-215.889
 11
-212.429
 20
204.302
 21
206.958
  0
LINE
  8
0
 10
-212.429
 11
-208.75
 20
206.958
 21
209.301
  0
LINE
  8
0
 10
-208.75
 11
-204.881
 20
209.301
 21
211.315
  0
LINE
  8
0
 10
-204.881
 11
-200.851
 20
211.315
 21
212.985
  0
LINE
  8
0
 10
-200.851
 11
-196.691
 20
212.985
 21
214.296
  0
LINE
  8
0
 10
-196.691
 11
-192.432
 20
214.296
 21
215.24
  0
LINE
  8
0
 10
-192.432
 11
-188.108
 20
215.24
 21
215.81
  0
LINE
  8
0
 10
-188.108
 11
-183.75
 20
215.81
 21
216
  0
LINE
  8
0
 10
-183.75
 11
183.75
 20
216
 21
216
  0
LINE
  8
0
 10
183.75
 11
188.108
 20
216
 21
215.81
  0
LINE
  8
0
 10
188.108
 11
192.432
 20
215.81
 21
215.24
  0
LINE
  8
0
 10
192.432
 11
196.691
 20
215.24
 21
214.296
  0
LINE
  8
0
 10
196.691
 11
200.851
 20
214.296
 21
212.985
  0
LINE
  8
0
 10
200.851
 11
204.881
 20
212.985
 21
211.315
  0
LINE
  8
0
 10
204.881
 11
208.75
 20
211.315
 21
209.301
  0
LINE
  8
0
 10
208.75
 11
212.429
 20
209.301
 21
206.958
  0
LINE
  8
0
 10
212.429
 11
215.889
 20
206.958
 21
204.302
  0
LINE
  8
0
 10
215.889
 11
219.105
 20
204.302
 21
201.355
  0
LINE
  8
0
 10
219.105
 11
222.052
 20
201.355
 21
198.139
  0
LINE
  8
0
 10
222.052
 11
224.708
 20
198.139
 21
194.679
  0
LINE
  8
0
 10
224.708
 11
227.051
 20
194.679
 21
191
  0
LINE
  8
0
 10
227.051
 11
229.065
 20
191
 21
187.131
  0
LINE
  8
0
 10
229.065
 11
230.735
 20
187.131
 21
183.101
  0
LINE
  8
0
 10
230.735
 11
232.046
 20
183.101
 21
178.941
  0
LINE
  8
0
 10
232.046
 11
232.99
 20
178.941
 21
174.682
  0
LINE
  8
0
 10
232.99
 11
233.56
 20
174.682
 21
170.358
  0
LINE
  8
0
 10
233.56
 11
233.75
 20
170.358
 21
166
  0
LINE
  8
0
 10
233.75
 11
233.75
 20
166
 21
-166
  0
LINE
  8
0
 10
233.75
 11
233.56
 20
-166
 21
-170.358
  0
LINE
  8
0
 10
233.56
 11
232.99
 20
-170.358
 21
-174.682
  0
LINE
  8
0
 10
232.99
 11
232.046
 20
-174.682
 21
-178.941
  0
LINE
  8
0
 10
232.046
 11
230.735
 20
-178.941
 21
-183.101
  0
LINE
  8
0
 10
230.735
 11
229.065
 20
-183.101
 21
-187.131
  0
LINE
  8
0
 10
229.065
 11
227.051
 20
-187.131
 21
-191
  0
LINE
  8
0
 10
227.051
 11
224.708
 20
-191
 21
-194.679
  0
LINE
  8
0
 10
224.708
 11
222.052
 20
-194.679
 21
-198.139
  0
LINE
  8
0
 10
222.052
 11
219.105
 20
-198.139
 21
-201.355
  0
LINE
  8
0
 10
219.105
 11
215.889
 20
-201.355
 21
-204.302
  0
LINE
  8
0
 10
215.889
 11
212.429
 20
-204.302
 21
-206.958
  0
LINE
  8
0
 10
212.429
 11
208.75
 20
-206.958
 21
-209.301
  0
LINE
  8
0
 10
208.75
 11
204.881
 20
-209.301
 21
-211.315
  0
LINE
  8
0
 10
204.881
 11
200.851
 20
-211.315
 21
-212.985
  0
LINE
  8
0
 10
200.851
 11
196.691
 20
-212.985
 21
-214.296
  0
LINE
  8
0
 10
196.691
 11
192.432
 20
-214.296
 21
-215.24
  0
LINE
  8
0
 10
192.432
 11
188.108
 20
-215.24
 21
-215.81
  0
LINE
  8
0
 10
188.108
 11
183.75
 20
-215.81
 21
-216
  0
LINE
  8
0
 10
183.75
 11
-183.75
 20
-216
 21
-216
  0
LINE
  8
0
 10
-183.75
 11
-188.108
 20
-216
 21
-215.81
  0
LINE
  8
0
 10
-188.108
 11
-192.432
 20
-215.81
 21
-215.24
  0
LINE
  8
0
 10
-192.432
 11
-196.691
 20
-215.24
 21
-214.296
  0
LINE
  8
0
 10
-196.691
 11
-200.851
 20
-214.296
 21
-212.985
  0
LINE
  8
0
 10
-200.851
 11
-204.881
 20
-212.985
 21
-211.315
  0
LINE
  8
0
 10
-204.881
 11
-208.75
 20
-211.315
 21
-209.301
  0
LINE
  8
0
 10
-208.75
 11
-212.429
 20
-209.301
 21
-206.958
  0
LINE
  8
0
 10
-212.429
 11
-215.889
 20
-206.958
 21
-204.302
  0
LINE
  8
0
 10
-215.889
 11
-219.105
 20
-204.302
 21
-201.355
  0
LINE
  8
0
 10
-219.105
 11
-222.052
 20
-201.355
 21
-198.139
  0
LINE
  8
0
 10
-222.052
 11
-224.708
 20
-198.139
 21
-194.679
  0
LINE
  8
0
 10
-224.708
 11
-227.051
 20
-194.679
 21
-191
  0
LINE
  8
0
 10
-227.051
 11
-229.065
 20
-191
 21
-187.131
  0
LINE
  8
0
 10
-229.065
 11
-230.735
 20
-187.131
 21
-183.101
  0
LINE
  8
0
 10
-230.735
 11
-232.046
 20
-183.101
 21
-178.941
  0
LINE
  8
0
 10
-232.046
 11
-232.99
 20
-178.941
 21
-174.682
  0
LINE
  8
0
 10
-232.99
 11
-233.56
 20
-174.682
 21
-170.358
  0
LINE
  8
0
 10
-233.56
 11
-233.75
 20
-170.358
 21
-166
  0
LINE
  8
0
 10
-152.031
 11
-152.031
 20
59.961
 21
60.439
  0
LINE
  8
0
 10
-152.031
 11
-151.809
 20
60.439
 21
60.863
  0
LINE
  8
0
 10
-151.809
 11
-151.415
 20
60.863
 21
61.135
  0
LINE
  8
0
 10
-151.415
 11
-150.939
 20
61.135
 21
61.193
  0
LINE
  8
0
 10
-150.939
 11
-150.492
 20
61.193
 21
61.023
  0
LINE
  8
0
 10
-150.492
 11
-150.175
 20
61.023
 21
60.665
  0
LINE
  8
0
 10
-150.175
 11
-150.06
 20
60.665
 21
60.2
  0
LINE
  8
0
 10
-150.06
 11
-150.175
 20
60.2
 21
59.735
  0
LINE
  8
0
 10
-150.175
 11
-150.492
 20
59.735
 21
59.377
  0
LINE
  8
0
 10
-150.492
 11
-150.939
 20
59.377
 21
59.207
  0
LINE
  8
0
 10
-150.939
 11
-151.415
 20
59.207
 21
59.265
  0
LINE
  8
0
 10
-151.415
 11
-151.809
 20
59.265
 21
59.537
  0
LINE
  8
0
 10
-151.809
 11
-152.031
 20
59.537
 21
59.961
  0
LINE
  8
0
 10
-111.243
 11
-111.073
 20
-207.379
 21
-206.932
  0
LINE
  8
0
 10
-111.073
 11
-110.715
 20
-206.932
 21
-206.615
  0
LINE
  8
0
 10
-110.715
 11
-110.25
 20
-206.615
 21
-206.5
  0
LINE
  8
0
 10
-110.25
 11
-109.785
 20
-206.5
 21
-206.615
  0
LINE
  8
0
 10
-109.785
 11
-109.427
 20
-206.615
 21
-206.932
  0
LINE
  8
0
 10
-109.427
 11
-109.257
 20
-206.932
 21
-207.379
  0
LINE
  8
0
 10
-109.257
 11
-109.315
 20
-207.379
 21
-207.855
  0
LINE
  8
0
 10
-109.315
 11
-109.587
 20
-207.855
 21
-208.249
  0
LINE
  8
0
 10
-109.587
 11
-110.011
 20
-208.249
 21
-208.471
  0
LINE
  8
0
 10
-110.011
 11
-110.489
 20
-208.471
 21
-208.471
  0
LINE
  8
0
 10
-110.489
 11
-110.913
 20
-208.471
 21
-208.249
  0
LINE
  8
0
 10
-110.913
 11
-111.185
 20
-208.249
 21
-207.855
  0
LINE
  8
0
 10
-111.185
 11
-111.243
 20
-207.855
 21
-207.379
  0
LINE
  8
0
 10
-111.243
 11
-111.073
 20
207.621
 21
208.068
  0
LINE
  8
0
 10
-111.073
 11
-110.715
 20
208.068
 21
208.385
  0
LINE
  8
0
 10
-110.715
 11
-110.25
 20
208.385
 21
208.5
  0
LINE
  8
0
 10
-110.25
 11
-109.785
 20
208.5
 21
208.385
  0
LINE
  8
0
 10
-109.785
 11
-109.427
 20
208.385
 21
208.068
  0
LINE
  8
0
 10
-109.427
 11
-109.257
 20
208.068
 21
207.621
  0
LINE
  8
0
 10
-109.257
 11
-109.315
 20
207.621
 21
207.145
  0
LINE
  8
0
 10
-109.315
 11
-109.587
 20
207.145
 21
206.751
  0
LINE
  8
0
 10
-109.587
 11
-110.011
 20
206.751
 21
206.529
  0
LINE
  8
0
 10
-110.011
 11
-110.489
 20
206.529
 21
206.529
  0
LINE
  8
0
 10
-110.489
 11
-110.913
 20
206.529
 21
206.751
  0
LINE
  8
0
 10
-110.913
 11
-111.185
 20
206.751
 21
207.145
  0
LINE
  8
0
 10
-111.185
 11
-111.243
 20
207.145
 21
207.621
  0
LINE
  8
0
 10
-78.243
 11
-78.073
 20
-207.379
 21
-206.932
  0
LINE
  8
0
 10
-78.073
 11
-77.715
 20
-206.932
 21
-206.615
  0
LINE
  8
0
 10
-77.715
 11
-77.25
 20
-206.615
 21
-206.5
  0
LINE
  8
0
 10
-77.25
 11
-76.785
 20
-206.5
 21
-206.615
  0
LINE
  8
0
 10
-76.785
 11
-76.427
 20
-206.615
 21
-206.932
  0
LINE
  8
0
 10
-76.427
 11
-76.257
 20
-206.932
 21
-207.379
  0
LINE
  8
0
 10
-76.257
 11
-76.315
 20
-207.379
 21
-207.855
  0
LINE
  8
0
 10
-76.315
 11
-76.587
 20
-207.855
 21
-208.249
  0
LINE
  8
0
 10
-76.587
 11
-77.011
 20
-208.249
 21
-208.471
  0
LINE
  8
0
 10
-77.011
 11
-77.489
 20
-208.471
 21
-208.471
  0
LINE
  8
0
 10
-77.489
 11
-77.913
 20
-208.471
 21
-208.249
  0
LINE
  8
0
 10
-77.913
 11
-78.185
 20
-208.249
 21
-207.855
  0
LINE
  8
0
 10
-78.185
 11
-78.243
 20
-207.855
 21
-207.379
  0
LINE
  8
0
 10
-78.243
 11
-78.073
 20
207.621
 21
208.068
  0
LINE
  8
0
 10
-78.073
 11
-77.715
 20
208.068
 21
208.385
  0
LINE
  8
0
 10
-77.715
 11
-77.25
 20
208.385
 21
208.5
  0
LINE
  8
0
 10
-77.25
 11
-76.785
 20
208.5
 21
208.385
  0
LINE
  8
0
 10
-76.785
 11
-76.427
 20
208.385
 21
208.068
  0
LINE
  8
0
 10
-76.427
 11
-76.257
 20
208.068
 21
207.621
  0
LINE
  8
0
 10
-76.257
 11
-76.315
 20
207.621
 21
207.145
  0
LINE
  8
0
 10
-76.315
 11
-76.587
 20
207.145
 21
206.751
  0
LINE
  8
0
 10
-76.587
 11
-77.011
 20
206.751
 21
206.529
  0
LINE
  8
0
 10
-77.011
 11
-77.489
 20
206.529
 21
206.529
  0
LINE
  8
0
 10
-77.489
 11
-77.913
 20
206.529
 21
206.751
  0
LINE
  8
0
 10
-77.913
 11
-78.185
 20
206.751
 21
207.145
  0
LINE
  8
0
 10
-78.185
 11
-78.243
 20
207.145
 21
207.621
  0
LINE
  8
0
 10
-36.191
 11
-36.191
 20
198.261
 21
198.739
  0
LINE
  8
0
 10
-36.191
 11
-35.969
 20
198.739
 21
199.163
  0
LINE
  8
0
 10
-35.969
 11
-35.575
 20
199.163
 21
199.435
  0
LINE
  8
0
 10
-35.575
 11
-35.099
 20
199.435
 21
199.493
  0
LINE
  8
0
 10
-35.099
 11
-34.652
 20
199.493
 21
199.323
  0
LINE
  8
0
 10
-34.652
 11
-34.335
 20
199.323
 21
198.965
  0
LINE
  8
0
 10
-34.335
 11
-34.22
 20
198.965
 21
198.5
  0
LINE
  8
0
 10
-34.22
 11
-34.335
 20
198.5
 21
198.035
  0
LINE
  8
0
 10
-34.335
 11
-34.652
 20
198.035
 21
197.677
  0
LINE
  8
0
 10
-34.652
 11
-35.099
 20
197.677
 21
197.507
  0
LINE
  8
0
 10
-35.099
 11
-35.575
 20
197.507
 21
197.565
  0
LINE
  8
0
 10
-35.575
 11
-35.969
 20
197.565
 21
197.837
  0
LINE
  8
0
 10
-35.969
 11
-36.191
 20
197.837
 21
198.261
  0
LINE
  8
0
 10
-25.691
 11
-25.691
 20
102.761
 21
103.239
  0
LINE
  8
0
 10
-25.691
 11
-25.469
 20
103.239
 21
103.663
  0
LINE
  8
0
 10
-25.469
 11
-25.075
 20
103.663
 21
103.935
  0
LINE
  8
0
 10
-25.075
 11
-24.599
 20
103.935
 21
103.993
  0
LINE
  8
0
 10
-24.599
 11
-24.152
 20
103.993
 21
103.823
  0
LINE
  8
0
 10
-24.152
 11
-23.835
 20
103.823
 21
103.465
  0
LINE
  8
0
 10
-23.835
 11
-23.72
 20
103.465
 21
103
  0
LINE
  8
0
 10
-23.72
 11
-23.835
 20
103
 21
102.535
  0
LINE
  8
0
 10
-23.835
 11
-24.152
 20
102.535
 21
102.177
  0
LINE
  8
0
 10
-24.152
 11
-24.599
 20
102.177
 21
102.007
  0
LINE
  8
0
 10
-24.599
 11
-25.075
 20
102.007
 21
102.065
  0
LINE
  8
0
 10
-25.075
 11
-25.469
 20
102.065
 21
102.337
  0
LINE
  8
0
 10
-25.469
 11
-25.691
 20
102.337
 21
102.761
  0
LINE
  8
0
 10
-17.713
 11
-17.655
 20
-208.621
 21
-208.145
  0
LINE
  8
0
 10
-17.655
 11
-17.383
 20
-208.145
 21
-207.751
  0
LINE
  8
0
 10
-17.383
 11
-16.959
 20
-207.751
 21
-207.529
  0
LINE
  8
0
 10
-16.959
 11
-16.481
 20
-207.529
 21
-207.529
  0
LINE
  8
0
 10
-16.481
 11
-16.057
 20
-207.529
 21
-207.751
  0
LINE
  8
0
 10
-16.057
 11
-15.785
 20
-207.751
 21
-208.145
  0
LINE
  8
0
 10
-15.785
 11
-15.727
 20
-208.145
 21
-208.621
  0
LINE
  8
0
 10
-15.727
 11
-15.897
 20
-208.621
 21
-209.068
  0
LINE
  8
0
 10
-15.897
 11
-16.255
 20
-209.068
 21
-209.385
  0
LINE
  8
0
 10
-16.255
 11
-16.72
 20
-209.385
 21
-209.5
  0
LINE
  8
0
 10
-16.72
 11
-17.185
 20
-209.5
 21
-209.385
  0
LINE
  8
0
 10
-17.185
 11
-17.543
 20
-209.385
 21
-209.068
  0
LINE
  8
0
 10
-17.543
 11
-17.713
 20
-209.068
 21
-208.621
  0
LINE
  8
0
 10
-17.713
 11
-17.655
 20
-145.621
 21
-145.145
  0
LINE
  8
0
 10
-17.655
 11
-17.383
 20
-145.145
 21
-144.751
  0
LINE
  8
0
 10
-17.383
 11
-16.959
 20
-144.751
 21
-144.529
  0
LINE
  8
0
 10
-16.959
 11
-16.481
 20
-144.529
 21
-144.529
  0
LINE
  8
0
 10
-16.481
 11
-16.057
 20
-144.529
 21
-144.751
  0
LINE
  8
0
 10
-16.057
 11
-15.785
 20
-144.751
 21
-145.145
  0
LINE
  8
0
 10
-15.785
 11
-15.727
 20
-145.145
 21
-145.621
  0
LINE
  8
0
 10
-15.727
 11
-15.897
 20
-145.621
 21
-146.068
  0
LINE
  8
0
 10
-15.897
 11
-16.255
 20
-146.068
 21
-146.385
  0
LINE
  8
0
 10
-16.255
 11
-16.72
 20
-146.385
 21
-146.5
  0
LINE
  8
0
 10
-16.72
 11
-17.185
 20
-146.5
 21
-146.385
  0
LINE
  8
0
 10
-17.185
 11
-17.543
 20
-146.385
 21
-146.068
  0
LINE
  8
0
 10
-17.543
 11
-17.713
 20
-146.068
 21
-145.621
  0
LINE
  8
0
 10
11.249
 11
11.249
 20
102.761
 21
103.239
  0
LINE
  8
0
 10
11.249
 11
11.471
 20
103.239
 21
103.663
  0
LINE
  8
0
 10
11.471
 11
11.865
 20
103.663
 21
103.935
  0
LINE
  8
0
 10
11.865
 11
12.341
 20
103.935
 21
103.993
  0
LINE
  8
0
 10
12.341
 11
12.788
 20
103.993
 21
103.823
  0
LINE
  8
0
 10
12.788
 11
13.105
 20
103.823
 21
103.465
  0
LINE
  8
0
 10
13.105
 11
13.22
 20
103.465
 21
103
  0
LINE
  8
0
 10
13.22
 11
13.105
 20
103
 21
102.535
  0
LINE
  8
0
 10
13.105
 11
12.788
 20
102.535
 21
102.177
  0
LINE
  8
0
 10
12.788
 11
12.341
 20
102.177
 21
102.007
  0
LINE
  8
0
 10
12.341
 11
11.865
 20
102.007
 21
102.065
  0
LINE
  8
0
 10
11.865
 11
11.471
 20
102.065
 21
102.337
  0
LINE
  8
0
 10
11.471
 11
11.249
 20
102.337
 21
102.761
  0
LINE
  8
0
 10
12.287
 11
12.345
 20
-208.621
 21
-208.145
  0
LINE
  8
0
 10
12.345
 11
12.617
 20
-208.145
 21
-207.751
  0
LINE
  8
0
 10
12.617
 11
13.041
 20
-207.751
 21
-207.529
  0
LINE
  8
0
 10
13.041
 11
13.519
 20
-207.529
 21
-207.529
  0
LINE
  8
0
 10
13.519
 11
13.943
 20
-207.529
 21
-207.751
  0
LINE
  8
0
 10
13.943
 11
14.215
 20
-207.751
 21
-208.145
  0
LINE
  8
0
 10
14.215
 11
14.273
 20
-208.145
 21
-208.621
  0
LINE
  8
0
 10
14.273
 11
14.103
 20
-208.621
 21
-209.068
  0
LINE
  8
0
 10
14.103
 11
13.745
 20
-209.068
 21
-209.385
  0
LINE
  8
0
 10
13.745
 11
13.28
 20
-209.385
 21
-209.5
  0
LINE
  8
0
 10
13.28
 11
12.815
 20
-209.5
 21
-209.385
  0
LINE
  8
0
 10
12.815
 11
12.457
 20
-209.385
 21
-209.068
  0
LINE
  8
0
 10
12.457
 11
12.287
 20
-209.068
 21
-208.621
  0
LINE
  8
0
 10
12.287
 11
12.345
 20
-145.621
 21
-145.145
  0
LINE
  8
0
 10
12.345
 11
12.617
 20
-145.145
 21
-144.751
  0
LINE
  8
0
 10
12.617
 11
13.041
 20
-144.751
 21
-144.529
  0
LINE
  8
0
 10
13.041
 11
13.519
 20
-144.529
 21
-144.529
  0
LINE
  8
0
 10
13.519
 11
13.943
 20
-144.529
 21
-144.751
  0
LINE
  8
0
 10
13.943
 11
14.215
 20
-144.751
 21
-145.145
  0
LINE
  8
0
 10
14.215
 11
14.273
 20
-145.145
 21
-145.621
  0
LINE
  8
0
 10
14.273
 11
14.103
 20
-145.621
 21
-146.068
  0
LINE
  8
0
 10
14.103
 11
13.745
 20
-146.068
 21
-146.385
  0
LINE
  8
0
 10
13.745
 11
13.28
 20
-146.385
 21
-146.5
  0
LINE
  8
0
 10
13.28
 11
12.815
 20
-146.5
 21
-146.385
  0
LINE
  8
0
 10
12.815
 11
12.457
 20
-146.385
 21
-146.068
  0
LINE
  8
0
 10
12.457
 11
12.287
 20
-146.068
 21
-145.621
  0
LINE
  8
0
 10
19.007
 11
19.065
 20
163.659
 21
164.135
  0
LINE
  8
0
 10
19.065
 11
19.337
 20
164.135
 21
164.529
  0
LINE
  8
0
 10
19.337
 11
19.761
 20
164.529
 21
164.751
  0
LINE
  8
0
 10
19.761
 11
20.239
 20
164.751
 21
164.751
  0
LINE
  8
0
 10
20.239
 11
20.663
 20
164.751
 21
164.529
  0
LINE
  8
0
 10
20.663
 11
20.935
 20
164.529
 21
164.135
  0
LINE
  8
0
 10
20.935
 11
20.993
 20
164.135
 21
163.659
  0
LINE
  8
0
 10
20.993
 11
20.823
 20
163.659
 21
163.212
  0
LINE
  8
0
 10
20.823
 11
20.465
 20
163.212
 21
162.895
  0
LINE
  8
0
 10
20.465
 11
20
 20
162.895
 21
162.78
  0
LINE
  8
0
 10
20
 11
19.535
 20
162.78
 21
162.895
  0
LINE
  8
0
 10
19.535
 11
19.177
 20
162.895
 21
163.212
  0
LINE
  8
0
 10
19.177
 11
19.007
 20
163.212
 21
163.659
  0
LINE
  8
0
 10
63.757
 11
63.815
 20
-133.621
 21
-133.145
  0
LINE
  8
0
 10
63.815
 11
64.087
 20
-133.145
 21
-132.751
  0
LINE
  8
0
 10
64.087
 11
64.511
 20
-132.751
 21
-132.529
  0
LINE
  8
0
 10
64.511
 11
64.989
 20
-132.529
 21
-132.529
  0
LINE
  8
0
 10
64.989
 11
65.413
 20
-132.529
 21
-132.751
  0
LINE
  8
0
 10
65.413
 11
65.685
 20
-132.751
 21
-133.145
  0
LINE
  8
0
 10
65.685
 11
65.743
 20
-133.145
 21
-133.621
  0
LINE
  8
0
 10
65.743
 11
65.573
 20
-133.621
 21
-134.068
  0
LINE
  8
0
 10
65.573
 11
65.215
 20
-134.068
 21
-134.385
  0
LINE
  8
0
 10
65.215
 11
64.75
 20
-134.385
 21
-134.5
  0
LINE
  8
0
 10
64.75
 11
64.285
 20
-134.5
 21
-134.385
  0
LINE
  8
0
 10
64.285
 11
63.927
 20
-134.385
 21
-134.068
  0
LINE
  8
0
 10
63.927
 11
63.757
 20
-134.068
 21
-133.621
  0
LINE
  8
0
 10
63.757
 11
63.815
 20
123.379
 21
123.855
  0
LINE
  8
0
 10
63.815
 11
64.087
 20
123.855
 21
124.249
  0
LINE
  8
0
 10
64.087
 11
64.511
 20
124.249
 21
124.471
  0
LINE
  8
0
 10
64.511
 11
64.989
 20
124.471
 21
124.471
  0
LINE
  8
0
 10
64.989
 11
65.413
 20
124.471
 21
124.249
  0
LINE
  8
0
 10
65.413
 11
65.685
 20
124.249
 21
123.855
  0
LINE
  8
0
 10
65.685
 11
65.743
 20
123.855
 21
123.379
  0
LINE
  8
0
 10
65.743
 11
65.573
 20
123.379
 21
122.932
  0
LINE
  8
0
 10
65.573
 11
65.215
 20
122.932
 21
122.615
  0
LINE
  8
0
 10
65.215
 11
64.75
 20
122.615
 21
122.5
  0
LINE
  8
0
 10
64.75
 11
64.285
 20
122.5
 21
122.615
  0
LINE
  8
0
 10
64.285
 11
63.927
 20
122.615
 21
122.932
  0
LINE
  8
0
 10
63.927
 11
63.757
 20
122.932
 21
123.379
  0
LINE
  8
0
 10
96.757
 11
96.815
 20
-133.621
 21
-133.145
  0
LINE
  8
0
 10
96.815
 11
97.087
 20
-133.145
 21
-132.751
  0
LINE
  8
0
 10
97.087
 11
97.511
 20
-132.751
 21
-132.529
  0
LINE
  8
0
 10
97.511
 11
97.989
 20
-132.529
 21
-132.529
  0
LINE
  8
0
 10
97.989
 11
98.413
 20
-132.529
 21
-132.751
  0
LINE
  8
0
 10
98.413
 11
98.685
 20
-132.751
 21
-133.145
  0
LINE
  8
0
 10
98.685
 11
98.743
 20
-133.145
 21
-133.621
  0
LINE
  8
0
 10
98.743
 11
98.573
 20
-133.621
 21
-134.068
  0
LINE
  8
0
 10
98.573
 11
98.215
 20
-134.068
 21
-134.385
  0
LINE
  8
0
 10
98.215
 11
97.75
 20
-134.385
 21
-134.5
  0
LINE
  8
0
 10
97.75
 11
97.285
 20
-134.5
 21
-134.385
  0
LINE
  8
0
 10
97.285
 11
96.927
 20
-134.385
 21
-134.068
  0
LINE
  8
0
 10
96.927
 11
96.757
 20
-134.068
 21
-133.621
  0
LINE
  8
0
 10
96.757
 11
96.815
 20
123.379
 21
123.855
  0
LINE
  8
0
 10
96.815
 11
97.087
 20
123.855
 21
124.249
  0
LINE
  8
0
 10
97.087
 11
97.511
 20
124.249
 21
124.471
  0
LINE
  8
0
 10
97.511
 11
97.989
 20
124.471
 21
124.471
  0
LINE
  8
0
 10
97.989
 11
98.413
 20
124.471
 21
124.249
  0
LINE
  8
0
 10
98.413
 11
98.685
 20
124.249
 21
123.855
  0
LINE
  8
0
 10
98.685
 11
98.743
 20
123.855
 21
123.379
  0
LINE
  8
0
 10
98.743
 11
98.573
 20
123.379
 21
122.932
  0
LINE
  8
0
 10
98.573
 11
98.215
 20
122.932
 21
122.615
  0
LINE
  8
0
 10
98.215
 11
97.75
 20
122.615
 21
122.5
  0
LINE
  8
0
 10
97.75
 11
97.285
 20
122.5
 21
122.615
  0
LINE
  8
0
 10
97.285
 11
96.927
 20
122.615
 21
122.932
  0
LINE
  8
0
 10
96.927
 11
96.757
 20
122.932
 21
123.379
  0
LINE
  8
0
 10
108.979
 11
108.979
 20
-115.239
 21
-114.761
  0
LINE
  8
0
 10
108.979
 11
109.201
 20
-114.761
 21
-114.337
  0
LINE
  8
0
 10
109.201
 11
109.595
 20
-114.337
 21
-114.065
  0
LINE
  8
0
 10
109.595
 11
110.071
 20
-114.065
 21
-114.007
  0
LINE
  8
0
 10
110.071
 11
110.518
 20
-114.007
 21
-114.177
  0
LINE
  8
0
 10
110.518
 11
110.835
 20
-114.177
 21
-114.535
  0
LINE
  8
0
 10
110.835
 11
110.95
 20
-114.535
 21
-115
  0
LINE
  8
0
 10
110.95
 11
110.835
 20
-115
 21
-115.465
  0
LINE
  8
0
 10
110.835
 11
110.518
 20
-115.465
 21
-115.823
  0
LINE
  8
0
 10
110.518
 11
110.071
 20
-115.823
 21
-115.993
  0
LINE
  8
0
 10
110.071
 11
109.595
 20
-115.993
 21
-115.935
  0
LINE
  8
0
 10
109.595
 11
109.201
 20
-115.935
 21
-115.663
  0
LINE
  8
0
 10
109.201
 11
108.979
 20
-115.663
 21
-115.239
  0
LINE
  8
0
 10
108.979
 11
108.979
 20
59.761
 21
60.239
  0
LINE
  8
0
 10
108.979
 11
109.201
 20
60.239
 21
60.663
  0
LINE
  8
0
 10
109.201
 11
109.595
 20
60.663
 21
60.935
  0
LINE
  8
0
 10
109.595
 11
110.071
 20
60.935
 21
60.993
  0
LINE
  8
0
 10
110.071
 11
110.518
 20
60.993
 21
60.823
  0
LINE
  8
0
 10
110.518
 11
110.835
 20
60.823
 21
60.465
  0
LINE
  8
0
 10
110.835
 11
110.95
 20
60.465
 21
60
  0
LINE
  8
0
 10
110.95
 11
110.835
 20
60
 21
59.535
  0
LINE
  8
0
 10
110.835
 11
110.518
 20
59.535
 21
59.177
  0
LINE
  8
0
 10
110.518
 11
110.071
 20
59.177
 21
59.007
  0
LINE
  8
0
 10
110.071
 11
109.595
 20
59.007
 21
59.065
  0
LINE
  8
0
 10
109.595
 11
109.201
 20
59.065
 21
59.337
  0
LINE
  8
0
 10
109.201
 11
108.979
 20
59.337
 21
59.761
  0
LINE
  8
0
 10
138.089
 11
138.089
 20
59.961
 21
60.439
  0
LINE
  8
0
 10
138.089
 11
138.311
 20
60.439
 21
60.863
  0
LINE
  8
0
 10
138.311
 11
138.705
 20
60.863
 21
61.135
  0
LINE
  8
0
 10
138.705
 11
139.181
 20
61.135
 21
61.193
  0
LINE
  8
0
 10
139.181
 11
139.628
 20
61.193
 21
61.023
  0
LINE
  8
0
 10
139.628
 11
139.945
 20
61.023
 21
60.665
  0
LINE
  8
0
 10
139.945
 11
140.06
 20
60.665
 21
60.2
  0
LINE
  8
0
 10
140.06
 11
139.945
 20
60.2
 21
59.735
  0
LINE
  8
0
 10
139.945
 11
139.628
 20
59.735
 21
59.377
  0
LINE
  8
0
 10
139.628
 11
139.181
 20
59.377
 21
59.207
  0
LINE
  8
0
 10
139.181
 11
138.705
 20
59.207
 21
59.265
  0
LINE
  8
0
 10
138.705
 11
138.311
 20
59.265
 21
59.537
  0
LINE
  8
0
 10
138.311
 11
138.089
 20
59.537
 21
59.961
  0
LINE
  8
0
 10
152.758
 11
152.758
 20
-0.246
 21
0.246
  0
LINE
  8
0
 10
152.758
 11
152.818
 20
0.246
 21
0.735
  0
LINE
  8
0
 10
152.818
 11
152.938
 20
0.735
 21
1.213
  0
LINE
  8
0
 10
152.938
 11
153.116
 20
1.213
 21
1.672
  0
LINE
  8
0
 10
153.116
 11
153.349
 20
1.672
 21
2.106
  0
LINE
  8
0
 10
153.349
 11
153.634
 20
2.106
 21
2.508
  0
LINE
  8
0
 10
153.634
 11
153.965
 20
2.508
 21
2.872
  0
LINE
  8
0
 10
153.965
 11
154.339
 20
2.872
 21
3.192
  0
LINE
  8
0
 10
154.339
 11
154.75
 20
3.192
 21
3.464
  0
LINE
  8
0
 10
154.75
 11
155.191
 20
3.464
 21
3.684
  0
LINE
  8
0
 10
155.191
 11
155.655
 20
3.684
 21
3.847
  0
LINE
  8
0
 10
155.655
 11
156.136
 20
3.847
 21
3.953
  0
LINE
  8
0
 10
156.136
 11
156.627
 20
3.953
 21
3.998
  0
LINE
  8
0
 10
156.627
 11
157.119
 20
3.998
 21
3.983
  0
LINE
  8
0
 10
157.119
 11
157.606
 20
3.983
 21
3.907
  0
LINE
  8
0
 10
157.606
 11
158.079
 20
3.907
 21
3.773
  0
LINE
  8
0
 10
158.079
 11
158.533
 20
3.773
 21
3.581
  0
LINE
  8
0
 10
158.533
 11
158.959
 20
3.581
 21
3.334
  0
LINE
  8
0
 10
158.959
 11
159.352
 20
3.334
 21
3.038
  0
LINE
  8
0
 10
159.352
 11
159.706
 20
3.038
 21
2.695
  0
LINE
  8
0
 10
159.706
 11
160.015
 20
2.695
 21
2.311
  0
LINE
  8
0
 10
160.015
 11
160.274
 20
2.311
 21
1.892
  0
LINE
  8
0
 10
160.274
 11
160.48
 20
1.892
 21
1.445
  0
LINE
  8
0
 10
160.48
 11
160.629
 20
1.445
 21
0.976
  0
LINE
  8
0
 10
160.629
 11
160.72
 20
0.976
 21
0.492
  0
LINE
  8
0
 10
160.72
 11
160.75
 20
0.492
 21
0
  0
LINE
  8
0
 10
160.75
 11
160.72
 20
0
 21
-0.492
  0
LINE
  8
0
 10
160.72
 11
160.629
 20
-0.492
 21
-0.976
  0
LINE
  8
0
 10
160.629
 11
160.48
 20
-0.976
 21
-1.445
  0
LINE
  8
0
 10
160.48
 11
160.274
 20
-1.445
 21
-1.892
  0
LINE
  8
0
 10
160.274
 11
160.015
 20
-1.892
 21
-2.311
  0
LINE
  8
0
 10
160.015
 11
159.706
 20
-2.311
 21
-2.695
  0
LINE
  8
0
 10
159.706
 11
159.352
 20
-2.695
 21
-3.038
  0
LINE
  8
0
 10
159.352
 11
158.959
 20
-3.038
 21
-3.334
  0
LINE
  8
0
 10
158.959
 11
158.533
 20
-3.334
 21
-3.581
  0
LINE
  8
0
 10
158.533
 11
158.079
 20
-3.581
 21
-3.773
  0
LINE
  8
0
 10
158.079
 11
157.606
 20
-3.773
 21
-3.907
  0
LINE
  8
0
 10
157.606
 11
157.119
 20
-3.907
 21
-3.983
  0
LINE
  8
0
 10
157.119
 11
156.627
 20
-3.983
 21
-3.998
  0
LINE
  8
0
 10
156.627
 11
156.136
 20
-3.998
 21
-3.953
  0
LINE
  8
0
 10
156.136
 11
155.655
 20
-3.953
 21
-3.847
  0
LINE
  8
0
 10
155.655
 11
155.191
 20
-3.847
 21
-3.684
  0
LINE
  8
0
 10
155.191
 11
154.75
 20
-3.684
 21
-3.464
  0
LINE
  8
0
 10
154.75
 11
154.339
 20
-3.464
 21
-3.192
  0
LINE
  8
0
 10
154.339
 11
153.965
 20
-3.192
 21
-2.872
  0
LINE
  8
0
 10
153.965
 11
153.634
 20
-2.872
 21
-2.508
  0
LINE
  8
0
 10
153.634
 11
153.349
 20
-2.508
 21
-2.106
  0
LINE
  8
0
 10
153.349
 11
153.116
 20
-2.106
 21
-1.672
  0
LINE
  8
0
 10
153.116
 11
152.938
 20
-1.672
 21
-1.213
  0
LINE
  8
0
 10
152.938
 11
152.818
 20
-1.213
 21
-0.735
  0
LINE
  8
0
 10
152.818
 11
152.758
 20
-0.735
 21
-0.246
  0
LINE
  8
0
 10
169.057
 11
169.227
 20
195.811
 21
196.258
  0
LINE
  8
0
 10
169.227
 11
169.585
 20
196.258
 21
196.575
  0
LINE
  8
0
 10
169.585
 11
170.05
 20
196.575
 21
196.69
  0
LINE
  8
0
 10
170.05
 11
170.515
 20
196.69
 21
196.575
  0
LINE
  8
0
 10
170.515
 11
170.873
 20
196.575
 21
196.258
  0
LINE
  8
0
 10
170.873
 11
171.043
 20
196.258
 21
195.811
  0
LINE
  8
0
 10
171.043
 11
170.985
 20
195.811
 21
195.335
  0
LINE
  8
0
 10
170.985
 11
170.713
 20
195.335
 21
194.941
  0
LINE
  8
0
 10
170.713
 11
170.289
 20
194.941
 21
194.719
  0
LINE
  8
0
 10
170.289
 11
169.811
 20
194.719
 21
194.719
  0
LINE
  8
0
 10
169.811
 11
169.387
 20
194.719
 21
194.941
  0
LINE
  8
0
 10
169.387
 11
169.115
 20
194.941
 21
195.335
  0
LINE
  8
0
 10
169.115
 11
169.057
 20
195.335
 21
195.811
  0
LINE
  8
0
 10
212.469
 11
212.469
 20
59.961
 21
60.439
  0
LINE
  8
0
 10
212.469
 11
212.691
 20
60.439
 21
60.863
  0
LINE
  8
0
 10
212.691
 11
213.085
 20
60.863
 21
61.135
  0
LINE
  8
0
 10
213.085
 11
213.561
 20
61.135
 21
61.193
  0
LINE
  8
0
 10
213.561
 11
214.008
 20
61.193
 21
61.023
  0
LINE
  8
0
 10
214.008
 11
214.325
 20
61.023
 21
60.665
  0
LINE
  8
0
 10
214.325
 11
214.44
 20
60.665
 21
60.2
  0
LINE
  8
0
 10
214.44
 11
214.325
 20
60.2
 21
59.735
  0
LINE
  8
0
 10
214.325
 11
214.008
 20
59.735
 21
59.377
  0
LINE
  8
0
 10
214.008
 11
213.561
 20
59.377
 21
59.207
  0
LINE
  8
0
 10
213.561
 11
213.085
 20
59.207
 21
59.265
  0
LINE
  8
0
 10
213.085
 11
212.691
 20
59.265
 21
59.537
  0
LINE
  8
0
 10
212.691
 11
212.469
 20
59.537
 21
59.961
  0
ENDSEC
  0
SECTION
  2
OBJECTS
  0
DICTIONARY
  0
ENDSEC
  0
EOF
