  0
SECTION
  2
BLOCKS
  0
ENDSEC
  0
SECTION
  2
ENTITIES
  0
LINE
  8
0
 10
-227.221
 11
-227.221
 20
105.861
 21
106.339
  0
LINE
  8
0
 10
-227.221
 11
-226.999
 20
106.339
 21
106.763
  0
LINE
  8
0
 10
-226.999
 11
-226.605
 20
106.763
 21
107.035
  0
LINE
  8
0
 10
-226.605
 11
-226.129
 20
107.035
 21
107.093
  0
LINE
  8
0
 10
-226.129
 11
-225.682
 20
107.093
 21
106.923
  0
LINE
  8
0
 10
-225.682
 11
-225.365
 20
106.923
 21
106.565
  0
LINE
  8
0
 10
-225.365
 11
-225.25
 20
106.565
 21
106.1
  0
LINE
  8
0
 10
-225.25
 11
-225.365
 20
106.1
 21
105.635
  0
LINE
  8
0
 10
-225.365
 11
-225.682
 20
105.635
 21
105.277
  0
LINE
  8
0
 10
-225.682
 11
-226.129
 20
105.277
 21
105.107
  0
LINE
  8
0
 10
-226.129
 11
-226.605
 20
105.107
 21
105.165
  0
LINE
  8
0
 10
-226.605
 11
-226.999
 20
105.165
 21
105.437
  0
LINE
  8
0
 10
-226.999
 11
-227.221
 20
105.437
 21
105.861
  0
LINE
  8
0
 10
-227.221
 11
-227.221
 20
147.261
 21
147.739
  0
LINE
  8
0
 10
-227.221
 11
-226.999
 20
147.739
 21
148.163
  0
LINE
  8
0
 10
-226.999
 11
-226.605
 20
148.163
 21
148.435
  0
LINE
  8
0
 10
-226.605
 11
-226.129
 20
148.435
 21
148.493
  0
LINE
  8
0
 10
-226.129
 11
-225.682
 20
148.493
 21
148.323
  0
LINE
  8
0
 10
-225.682
 11
-225.365
 20
148.323
 21
147.965
  0
LINE
  8
0
 10
-225.365
 11
-225.25
 20
147.965
 21
147.5
  0
LINE
  8
0
 10
-225.25
 11
-225.365
 20
147.5
 21
147.035
  0
LINE
  8
0
 10
-225.365
 11
-225.682
 20
147.035
 21
146.677
  0
LINE
  8
0
 10
-225.682
 11
-226.129
 20
146.677
 21
146.507
  0
LINE
  8
0
 10
-226.129
 11
-226.605
 20
146.507
 21
146.565
  0
LINE
  8
0
 10
-226.605
 11
-226.999
 20
146.565
 21
146.837
  0
LINE
  8
0
 10
-226.999
 11
-227.221
 20
146.837
 21
147.261
  0
LINE
  8
0
 10
-225.05
 11
-224.935
 20
8.2
 21
8.665
  0
LINE
  8
0
 10
-224.935
 11
-224.618
 20
8.665
 21
9.023
  0
LINE
  8
0
 10
-224.618
 11
-224.171
 20
9.023
 21
9.193
  0
LINE
  8
0
 10
-224.171
 11
-223.695
 20
9.193
 21
9.135
  0
LINE
  8
0
 10
-223.695
 11
-223.301
 20
9.135
 21
8.863
  0
LINE
  8
0
 10
-223.301
 11
-223.079
 20
8.863
 21
8.439
  0
LINE
  8
0
 10
-223.079
 11
-223.079
 20
8.439
 21
7.961
  0
LINE
  8
0
 10
-223.079
 11
-223.301
 20
7.961
 21
7.537
  0
LINE
  8
0
 10
-223.301
 11
-223.695
 20
7.537
 21
7.265
  0
LINE
  8
0
 10
-223.695
 11
-224.171
 20
7.265
 21
7.207
  0
LINE
  8
0
 10
-224.171
 11
-224.618
 20
7.207
 21
7.377
  0
LINE
  8
0
 10
-224.618
 11
-224.935
 20
7.377
 21
7.735
  0
LINE
  8
0
 10
-224.935
 11
-225.05
 20
7.735
 21
8.2
  0
LINE
  8
0
 10
-218.221
 11
-218.221
 20
61.261
 21
61.739
  0
LINE
  8
0
 10
-218.221
 11
-217.999
 20
61.739
 21
62.163
  0
LINE
  8
0
 10
-217.999
 11
-217.605
 20
62.163
 21
62.435
  0
LINE
  8
0
 10
-217.605
 11
-217.129
 20
62.435
 21
62.493
  0
LINE
  8
0
 10
-217.129
 11
-216.682
 20
62.493
 21
62.323
  0
LINE
  8
0
 10
-216.682
 11
-216.365
 20
62.323
 21
61.965
  0
LINE
  8
0
 10
-216.365
 11
-216.25
 20
61.965
 21
61.5
  0
LINE
  8
0
 10
-216.25
 11
-216.365
 20
61.5
 21
61.035
  0
LINE
  8
0
 10
-216.365
 11
-216.682
 20
61.035
 21
60.677
  0
LINE
  8
0
 10
-216.682
 11
-217.129
 20
60.677
 21
60.507
  0
LINE
  8
0
 10
-217.129
 11
-217.605
 20
60.507
 21
60.565
  0
LINE
  8
0
 10
-217.605
 11
-217.999
 20
60.565
 21
60.837
  0
LINE
  8
0
 10
-217.999
 11
-218.221
 20
60.837
 21
61.261
  0
LINE
  8
0
 10
-203.83
 11
-203.715
 20
8.2
 21
8.665
  0
LINE
  8
0
 10
-203.715
 11
-203.398
 20
8.665
 21
9.023
  0
LINE
  8
0
 10
-203.398
 11
-202.951
 20
9.023
 21
9.193
  0
LINE
  8
0
 10
-202.951
 11
-202.475
 20
9.193
 21
9.135
  0
LINE
  8
0
 10
-202.475
 11
-202.081
 20
9.135
 21
8.863
  0
LINE
  8
0
 10
-202.081
 11
-201.859
 20
8.863
 21
8.439
  0
LINE
  8
0
 10
-201.859
 11
-201.859
 20
8.439
 21
7.961
  0
LINE
  8
0
 10
-201.859
 11
-202.081
 20
7.961
 21
7.537
  0
LINE
  8
0
 10
-202.081
 11
-202.475
 20
7.537
 21
7.265
  0
LINE
  8
0
 10
-202.475
 11
-202.951
 20
7.265
 21
7.207
  0
LINE
  8
0
 10
-202.951
 11
-203.398
 20
7.207
 21
7.377
  0
LINE
  8
0
 10
-203.398
 11
-203.715
 20
7.377
 21
7.735
  0
LINE
  8
0
 10
-203.715
 11
-203.83
 20
7.735
 21
8.2
  0
LINE
  8
0
 10
-201.25
 11
-201.192
 20
73.5
 21
73.979
  0
LINE
  8
0
 10
-201.192
 11
-201.021
 20
73.979
 21
74.429
  0
LINE
  8
0
 10
-201.021
 11
-200.747
 20
74.429
 21
74.826
  0
LINE
  8
0
 10
-200.747
 11
-200.386
 20
74.826
 21
75.146
  0
LINE
  8
0
 10
-200.386
 11
-199.959
 20
75.146
 21
75.37
  0
LINE
  8
0
 10
-199.959
 11
-199.491
 20
75.37
 21
75.485
  0
LINE
  8
0
 10
-199.491
 11
-199.009
 20
75.485
 21
75.485
  0
LINE
  8
0
 10
-199.009
 11
-198.541
 20
75.485
 21
75.37
  0
LINE
  8
0
 10
-198.541
 11
-198.114
 20
75.37
 21
75.146
  0
LINE
  8
0
 10
-198.114
 11
-197.753
 20
75.146
 21
74.826
  0
LINE
  8
0
 10
-197.753
 11
-197.479
 20
74.826
 21
74.429
  0
LINE
  8
0
 10
-197.479
 11
-197.308
 20
74.429
 21
73.979
  0
LINE
  8
0
 10
-197.308
 11
-197.25
 20
73.979
 21
73.5
  0
LINE
  8
0
 10
-197.25
 11
-197.308
 20
73.5
 21
73.021
  0
LINE
  8
0
 10
-197.308
 11
-197.479
 20
73.021
 21
72.571
  0
LINE
  8
0
 10
-197.479
 11
-197.753
 20
72.571
 21
72.174
  0
LINE
  8
0
 10
-197.753
 11
-198.114
 20
72.174
 21
71.854
  0
LINE
  8
0
 10
-198.114
 11
-198.541
 20
71.854
 21
71.63
  0
LINE
  8
0
 10
-198.541
 11
-199.009
 20
71.63
 21
71.515
  0
LINE
  8
0
 10
-199.009
 11
-199.491
 20
71.515
 21
71.515
  0
LINE
  8
0
 10
-199.491
 11
-199.959
 20
71.515
 21
71.63
  0
LINE
  8
0
 10
-199.959
 11
-200.386
 20
71.63
 21
71.854
  0
LINE
  8
0
 10
-200.386
 11
-200.747
 20
71.854
 21
72.174
  0
LINE
  8
0
 10
-200.747
 11
-201.021
 20
72.174
 21
72.571
  0
LINE
  8
0
 10
-201.021
 11
-201.192
 20
72.571
 21
73.021
  0
LINE
  8
0
 10
-201.192
 11
-201.25
 20
73.021
 21
73.5
  0
LINE
  8
0
 10
-195.25
 11
-195.192
 20
302
 21
302.479
  0
LINE
  8
0
 10
-195.192
 11
-195.021
 20
302.479
 21
302.929
  0
LINE
  8
0
 10
-195.021
 11
-194.747
 20
302.929
 21
303.326
  0
LINE
  8
0
 10
-194.747
 11
-194.386
 20
303.326
 21
303.646
  0
LINE
  8
0
 10
-194.386
 11
-193.959
 20
303.646
 21
303.87
  0
LINE
  8
0
 10
-193.959
 11
-193.491
 20
303.87
 21
303.985
  0
LINE
  8
0
 10
-193.491
 11
-193.009
 20
303.985
 21
303.985
  0
LINE
  8
0
 10
-193.009
 11
-192.541
 20
303.985
 21
303.87
  0
LINE
  8
0
 10
-192.541
 11
-192.114
 20
303.87
 21
303.646
  0
LINE
  8
0
 10
-192.114
 11
-191.753
 20
303.646
 21
303.326
  0
LINE
  8
0
 10
-191.753
 11
-191.479
 20
303.326
 21
302.929
  0
LINE
  8
0
 10
-191.479
 11
-191.308
 20
302.929
 21
302.479
  0
LINE
  8
0
 10
-191.308
 11
-191.25
 20
302.479
 21
302
  0
LINE
  8
0
 10
-191.25
 11
-191.308
 20
302
 21
301.521
  0
LINE
  8
0
 10
-191.308
 11
-191.479
 20
301.521
 21
301.071
  0
LINE
  8
0
 10
-191.479
 11
-191.753
 20
301.071
 21
300.674
  0
LINE
  8
0
 10
-191.753
 11
-192.114
 20
300.674
 21
300.354
  0
LINE
  8
0
 10
-192.114
 11
-192.541
 20
300.354
 21
300.13
  0
LINE
  8
0
 10
-192.541
 11
-193.009
 20
300.13
 21
300.015
  0
LINE
  8
0
 10
-193.009
 11
-193.491
 20
300.015
 21
300.015
  0
LINE
  8
0
 10
-193.491
 11
-193.959
 20
300.015
 21
300.13
  0
LINE
  8
0
 10
-193.959
 11
-194.386
 20
300.13
 21
300.354
  0
LINE
  8
0
 10
-194.386
 11
-194.747
 20
300.354
 21
300.674
  0
LINE
  8
0
 10
-194.747
 11
-195.021
 20
300.674
 21
301.071
  0
LINE
  8
0
 10
-195.021
 11
-195.192
 20
301.071
 21
301.521
  0
LINE
  8
0
 10
-195.192
 11
-195.25
 20
301.521
 21
302
  0
LINE
  8
0
 10
-194.243
 11
-194.185
 20
312.379
 21
312.855
  0
LINE
  8
0
 10
-194.185
 11
-193.913
 20
312.855
 21
313.249
  0
LINE
  8
0
 10
-193.913
 11
-193.489
 20
313.249
 21
313.471
  0
LINE
  8
0
 10
-193.489
 11
-193.011
 20
313.471
 21
313.471
  0
LINE
  8
0
 10
-193.011
 11
-192.587
 20
313.471
 21
313.249
  0
LINE
  8
0
 10
-192.587
 11
-192.315
 20
313.249
 21
312.855
  0
LINE
  8
0
 10
-192.315
 11
-192.257
 20
312.855
 21
312.379
  0
LINE
  8
0
 10
-192.257
 11
-192.427
 20
312.379
 21
311.932
  0
LINE
  8
0
 10
-192.427
 11
-192.785
 20
311.932
 21
311.615
  0
LINE
  8
0
 10
-192.785
 11
-193.25
 20
311.615
 21
311.5
  0
LINE
  8
0
 10
-193.25
 11
-193.715
 20
311.5
 21
311.615
  0
LINE
  8
0
 10
-193.715
 11
-194.073
 20
311.615
 21
311.932
  0
LINE
  8
0
 10
-194.073
 11
-194.243
 20
311.932
 21
312.379
  0
LINE
  8
0
 10
-193.13
 11
-193.082
 20
7.5
 21
7.988
  0
LINE
  8
0
 10
-193.082
 11
-192.94
 20
7.988
 21
8.457
  0
LINE
  8
0
 10
-192.94
 11
-192.709
 20
8.457
 21
8.889
  0
LINE
  8
0
 10
-192.709
 11
-192.398
 20
8.889
 21
9.268
  0
LINE
  8
0
 10
-192.398
 11
-192.019
 20
9.268
 21
9.579
  0
LINE
  8
0
 10
-192.019
 11
-191.587
 20
9.579
 21
9.81
  0
LINE
  8
0
 10
-191.587
 11
-191.118
 20
9.81
 21
9.952
  0
LINE
  8
0
 10
-191.118
 11
-190.63
 20
9.952
 21
10
  0
LINE
  8
0
 10
-190.63
 11
-190.142
 20
10
 21
9.952
  0
LINE
  8
0
 10
-190.142
 11
-189.673
 20
9.952
 21
9.81
  0
LINE
  8
0
 10
-189.673
 11
-189.241
 20
9.81
 21
9.579
  0
LINE
  8
0
 10
-189.241
 11
-188.862
 20
9.579
 21
9.268
  0
LINE
  8
0
 10
-188.862
 11
-188.551
 20
9.268
 21
8.889
  0
LINE
  8
0
 10
-188.551
 11
-188.32
 20
8.889
 21
8.457
  0
LINE
  8
0
 10
-188.32
 11
-188.178
 20
8.457
 21
7.988
  0
LINE
  8
0
 10
-188.178
 11
-188.13
 20
7.988
 21
7.5
  0
LINE
  8
0
 10
-188.13
 11
-188.178
 20
7.5
 21
7.012
  0
LINE
  8
0
 10
-188.178
 11
-188.32
 20
7.012
 21
6.543
  0
LINE
  8
0
 10
-188.32
 11
-188.551
 20
6.543
 21
6.111
  0
LINE
  8
0
 10
-188.551
 11
-188.862
 20
6.111
 21
5.732
  0
LINE
  8
0
 10
-188.862
 11
-189.241
 20
5.732
 21
5.421
  0
LINE
  8
0
 10
-189.241
 11
-189.673
 20
5.421
 21
5.19
  0
LINE
  8
0
 10
-189.673
 11
-190.142
 20
5.19
 21
5.048
  0
LINE
  8
0
 10
-190.142
 11
-190.63
 20
5.048
 21
5
  0
LINE
  8
0
 10
-190.63
 11
-191.118
 20
5
 21
5.048
  0
LINE
  8
0
 10
-191.118
 11
-191.587
 20
5.048
 21
5.19
  0
LINE
  8
0
 10
-191.587
 11
-192.019
 20
5.19
 21
5.421
  0
LINE
  8
0
 10
-192.019
 11
-192.398
 20
5.421
 21
5.732
  0
LINE
  8
0
 10
-192.398
 11
-192.709
 20
5.732
 21
6.111
  0
LINE
  8
0
 10
-192.709
 11
-192.94
 20
6.111
 21
6.543
  0
LINE
  8
0
 10
-192.94
 11
-193.082
 20
6.543
 21
7.012
  0
LINE
  8
0
 10
-193.082
 11
-193.13
 20
7.012
 21
7.5
  0
LINE
  8
0
 10
-186.221
 11
-186.221
 20
61.261
 21
61.739
  0
LINE
  8
0
 10
-186.221
 11
-185.999
 20
61.739
 21
62.163
  0
LINE
  8
0
 10
-185.999
 11
-185.605
 20
62.163
 21
62.435
  0
LINE
  8
0
 10
-185.605
 11
-185.129
 20
62.435
 21
62.493
  0
LINE
  8
0
 10
-185.129
 11
-184.682
 20
62.493
 21
62.323
  0
LINE
  8
0
 10
-184.682
 11
-184.365
 20
62.323
 21
61.965
  0
LINE
  8
0
 10
-184.365
 11
-184.25
 20
61.965
 21
61.5
  0
LINE
  8
0
 10
-184.25
 11
-184.365
 20
61.5
 21
61.035
  0
LINE
  8
0
 10
-184.365
 11
-184.682
 20
61.035
 21
60.677
  0
LINE
  8
0
 10
-184.682
 11
-185.129
 20
60.677
 21
60.507
  0
LINE
  8
0
 10
-185.129
 11
-185.605
 20
60.507
 21
60.565
  0
LINE
  8
0
 10
-185.605
 11
-185.999
 20
60.565
 21
60.837
  0
LINE
  8
0
 10
-185.999
 11
-186.221
 20
60.837
 21
61.261
  0
LINE
  8
0
 10
-162.67
 11
-162.555
 20
8.2
 21
8.665
  0
LINE
  8
0
 10
-162.555
 11
-162.238
 20
8.665
 21
9.023
  0
LINE
  8
0
 10
-162.238
 11
-161.791
 20
9.023
 21
9.193
  0
LINE
  8
0
 10
-161.791
 11
-161.315
 20
9.193
 21
9.135
  0
LINE
  8
0
 10
-161.315
 11
-160.921
 20
9.135
 21
8.863
  0
LINE
  8
0
 10
-160.921
 11
-160.699
 20
8.863
 21
8.439
  0
LINE
  8
0
 10
-160.699
 11
-160.699
 20
8.439
 21
7.961
  0
LINE
  8
0
 10
-160.699
 11
-160.921
 20
7.961
 21
7.537
  0
LINE
  8
0
 10
-160.921
 11
-161.315
 20
7.537
 21
7.265
  0
LINE
  8
0
 10
-161.315
 11
-161.791
 20
7.265
 21
7.207
  0
LINE
  8
0
 10
-161.791
 11
-162.238
 20
7.207
 21
7.377
  0
LINE
  8
0
 10
-162.238
 11
-162.555
 20
7.377
 21
7.735
  0
LINE
  8
0
 10
-162.555
 11
-162.67
 20
7.735
 21
8.2
  0
LINE
  8
0
 10
-161.243
 11
-161.185
 20
312.379
 21
312.855
  0
LINE
  8
0
 10
-161.185
 11
-160.913
 20
312.855
 21
313.249
  0
LINE
  8
0
 10
-160.913
 11
-160.489
 20
313.249
 21
313.471
  0
LINE
  8
0
 10
-160.489
 11
-160.011
 20
313.471
 21
313.471
  0
LINE
  8
0
 10
-160.011
 11
-159.587
 20
313.471
 21
313.249
  0
LINE
  8
0
 10
-159.587
 11
-159.315
 20
313.249
 21
312.855
  0
LINE
  8
0
 10
-159.315
 11
-159.257
 20
312.855
 21
312.379
  0
LINE
  8
0
 10
-159.257
 11
-159.427
 20
312.379
 21
311.932
  0
LINE
  8
0
 10
-159.427
 11
-159.785
 20
311.932
 21
311.615
  0
LINE
  8
0
 10
-159.785
 11
-160.25
 20
311.615
 21
311.5
  0
LINE
  8
0
 10
-160.25
 11
-160.715
 20
311.5
 21
311.615
  0
LINE
  8
0
 10
-160.715
 11
-161.073
 20
311.615
 21
311.932
  0
LINE
  8
0
 10
-161.073
 11
-161.243
 20
311.932
 21
312.379
  0
LINE
  8
0
 10
-160.543
 11
-160.373
 20
36.831
 21
37.278
  0
LINE
  8
0
 10
-160.373
 11
-160.015
 20
37.278
 21
37.595
  0
LINE
  8
0
 10
-160.015
 11
-159.55
 20
37.595
 21
37.71
  0
LINE
  8
0
 10
-159.55
 11
-159.085
 20
37.71
 21
37.595
  0
LINE
  8
0
 10
-159.085
 11
-158.727
 20
37.595
 21
37.278
  0
LINE
  8
0
 10
-158.727
 11
-158.557
 20
37.278
 21
36.831
  0
LINE
  8
0
 10
-158.557
 11
-158.615
 20
36.831
 21
36.355
  0
LINE
  8
0
 10
-158.615
 11
-158.887
 20
36.355
 21
35.961
  0
LINE
  8
0
 10
-158.887
 11
-159.311
 20
35.961
 21
35.739
  0
LINE
  8
0
 10
-159.311
 11
-159.789
 20
35.739
 21
35.739
  0
LINE
  8
0
 10
-159.789
 11
-160.213
 20
35.739
 21
35.961
  0
LINE
  8
0
 10
-160.213
 11
-160.485
 20
35.961
 21
36.355
  0
LINE
  8
0
 10
-160.485
 11
-160.543
 20
36.355
 21
36.831
  0
LINE
  8
0
 10
-160.543
 11
-160.373
 20
284.411
 21
284.858
  0
LINE
  8
0
 10
-160.373
 11
-160.015
 20
284.858
 21
285.175
  0
LINE
  8
0
 10
-160.015
 11
-159.55
 20
285.175
 21
285.29
  0
LINE
  8
0
 10
-159.55
 11
-159.085
 20
285.29
 21
285.175
  0
LINE
  8
0
 10
-159.085
 11
-158.727
 20
285.175
 21
284.858
  0
LINE
  8
0
 10
-158.727
 11
-158.557
 20
284.858
 21
284.411
  0
LINE
  8
0
 10
-158.557
 11
-158.615
 20
284.411
 21
283.935
  0
LINE
  8
0
 10
-158.615
 11
-158.887
 20
283.935
 21
283.541
  0
LINE
  8
0
 10
-158.887
 11
-159.311
 20
283.541
 21
283.319
  0
LINE
  8
0
 10
-159.311
 11
-159.789
 20
283.319
 21
283.319
  0
LINE
  8
0
 10
-159.789
 11
-160.213
 20
283.319
 21
283.541
  0
LINE
  8
0
 10
-160.213
 11
-160.485
 20
283.541
 21
283.935
  0
LINE
  8
0
 10
-160.485
 11
-160.543
 20
283.935
 21
284.411
  0
LINE
  8
0
 10
-159.743
 11
-159.685
 20
255.059
 21
255.535
  0
LINE
  8
0
 10
-159.685
 11
-159.413
 20
255.535
 21
255.929
  0
LINE
  8
0
 10
-159.413
 11
-158.989
 20
255.929
 21
256.151
  0
LINE
  8
0
 10
-158.989
 11
-158.511
 20
256.151
 21
256.151
  0
LINE
  8
0
 10
-158.511
 11
-158.087
 20
256.151
 21
255.929
  0
LINE
  8
0
 10
-158.087
 11
-157.815
 20
255.929
 21
255.535
  0
LINE
  8
0
 10
-157.815
 11
-157.757
 20
255.535
 21
255.059
  0
LINE
  8
0
 10
-157.757
 11
-157.927
 20
255.059
 21
254.612
  0
LINE
  8
0
 10
-157.927
 11
-158.285
 20
254.612
 21
254.295
  0
LINE
  8
0
 10
-158.285
 11
-158.75
 20
254.295
 21
254.18
  0
LINE
  8
0
 10
-158.75
 11
-159.215
 20
254.18
 21
254.295
  0
LINE
  8
0
 10
-159.215
 11
-159.573
 20
254.295
 21
254.612
  0
LINE
  8
0
 10
-159.573
 11
-159.743
 20
254.612
 21
255.059
  0
LINE
  8
0
 10
-141.45
 11
-141.335
 20
8.2
 21
8.665
  0
LINE
  8
0
 10
-141.335
 11
-141.018
 20
8.665
 21
9.023
  0
LINE
  8
0
 10
-141.018
 11
-140.571
 20
9.023
 21
9.193
  0
LINE
  8
0
 10
-140.571
 11
-140.095
 20
9.193
 21
9.135
  0
LINE
  8
0
 10
-140.095
 11
-139.701
 20
9.135
 21
8.863
  0
LINE
  8
0
 10
-139.701
 11
-139.479
 20
8.863
 21
8.439
  0
LINE
  8
0
 10
-139.479
 11
-139.479
 20
8.439
 21
7.961
  0
LINE
  8
0
 10
-139.479
 11
-139.701
 20
7.961
 21
7.537
  0
LINE
  8
0
 10
-139.701
 11
-140.095
 20
7.537
 21
7.265
  0
LINE
  8
0
 10
-140.095
 11
-140.571
 20
7.265
 21
7.207
  0
LINE
  8
0
 10
-140.571
 11
-141.018
 20
7.207
 21
7.377
  0
LINE
  8
0
 10
-141.018
 11
-141.335
 20
7.377
 21
7.735
  0
LINE
  8
0
 10
-141.335
 11
-141.45
 20
7.735
 21
8.2
  0
LINE
  8
0
 10
121.757
 11
121.815
 20
312.379
 21
312.855
  0
LINE
  8
0
 10
121.815
 11
122.087
 20
312.855
 21
313.249
  0
LINE
  8
0
 10
122.087
 11
122.511
 20
313.249
 21
313.471
  0
LINE
  8
0
 10
122.511
 11
122.989
 20
313.471
 21
313.471
  0
LINE
  8
0
 10
122.989
 11
123.413
 20
313.471
 21
313.249
  0
LINE
  8
0
 10
123.413
 11
123.685
 20
313.249
 21
312.855
  0
LINE
  8
0
 10
123.685
 11
123.743
 20
312.855
 21
312.379
  0
LINE
  8
0
 10
123.743
 11
123.573
 20
312.379
 21
311.932
  0
LINE
  8
0
 10
123.573
 11
123.215
 20
311.932
 21
311.615
  0
LINE
  8
0
 10
123.215
 11
122.75
 20
311.615
 21
311.5
  0
LINE
  8
0
 10
122.75
 11
122.285
 20
311.5
 21
311.615
  0
LINE
  8
0
 10
122.285
 11
121.927
 20
311.615
 21
311.932
  0
LINE
  8
0
 10
121.927
 11
121.757
 20
311.932
 21
312.379
  0
LINE
  8
0
 10
127.45
 11
127.565
 20
8.2
 21
8.665
  0
LINE
  8
0
 10
127.565
 11
127.882
 20
8.665
 21
9.023
  0
LINE
  8
0
 10
127.882
 11
128.329
 20
9.023
 21
9.193
  0
LINE
  8
0
 10
128.329
 11
128.805
 20
9.193
 21
9.135
  0
LINE
  8
0
 10
128.805
 11
129.199
 20
9.135
 21
8.863
  0
LINE
  8
0
 10
129.199
 11
129.421
 20
8.863
 21
8.439
  0
LINE
  8
0
 10
129.421
 11
129.421
 20
8.439
 21
7.961
  0
LINE
  8
0
 10
129.421
 11
129.199
 20
7.961
 21
7.537
  0
LINE
  8
0
 10
129.199
 11
128.805
 20
7.537
 21
7.265
  0
LINE
  8
0
 10
128.805
 11
128.329
 20
7.265
 21
7.207
  0
LINE
  8
0
 10
128.329
 11
127.882
 20
7.207
 21
7.377
  0
LINE
  8
0
 10
127.882
 11
127.565
 20
7.377
 21
7.735
  0
LINE
  8
0
 10
127.565
 11
127.45
 20
7.735
 21
8.2
  0
LINE
  8
0
 10
139.779
 11
139.779
 20
61.261
 21
61.739
  0
LINE
  8
0
 10
139.779
 11
140.001
 20
61.739
 21
62.163
  0
LINE
  8
0
 10
140.001
 11
140.395
 20
62.163
 21
62.435
  0
LINE
  8
0
 10
140.395
 11
140.871
 20
62.435
 21
62.493
  0
LINE
  8
0
 10
140.871
 11
141.318
 20
62.493
 21
62.323
  0
LINE
  8
0
 10
141.318
 11
141.635
 20
62.323
 21
61.965
  0
LINE
  8
0
 10
141.635
 11
141.75
 20
61.965
 21
61.5
  0
LINE
  8
0
 10
141.75
 11
141.635
 20
61.5
 21
61.035
  0
LINE
  8
0
 10
141.635
 11
141.318
 20
61.035
 21
60.677
  0
LINE
  8
0
 10
141.318
 11
140.871
 20
60.677
 21
60.507
  0
LINE
  8
0
 10
140.871
 11
140.395
 20
60.507
 21
60.565
  0
LINE
  8
0
 10
140.395
 11
140.001
 20
60.565
 21
60.837
  0
LINE
  8
0
 10
140.001
 11
139.779
 20
60.837
 21
61.261
  0
LINE
  8
0
 10
-233.75
 11
-233.75
 20
0
 21
296
  0
LINE
  8
0
 10
-233.75
 11
-233.655
 20
296
 21
298.179
  0
LINE
  8
0
 10
-233.655
 11
-233.37
 20
298.179
 21
300.341
  0
LINE
  8
0
 10
-233.37
 11
-232.898
 20
300.341
 21
302.47
  0
LINE
  8
0
 10
-232.898
 11
-232.242
 20
302.47
 21
304.551
  0
LINE
  8
0
 10
-232.242
 11
-231.408
 20
304.551
 21
306.565
  0
LINE
  8
0
 10
-231.408
 11
-230.401
 20
306.565
 21
308.5
  0
LINE
  8
0
 10
-230.401
 11
-229.229
 20
308.5
 21
310.339
  0
LINE
  8
0
 10
-229.229
 11
-227.901
 20
310.339
 21
312.07
  0
LINE
  8
0
 10
-227.901
 11
-226.428
 20
312.07
 21
313.678
  0
LINE
  8
0
 10
-226.428
 11
-224.82
 20
313.678
 21
315.151
  0
LINE
  8
0
 10
-224.82
 11
-223.089
 20
315.151
 21
316.479
  0
LINE
  8
0
 10
-223.089
 11
-221.25
 20
316.479
 21
317.651
  0
LINE
  8
0
 10
-221.25
 11
-219.315
 20
317.651
 21
318.658
  0
LINE
  8
0
 10
-219.315
 11
-217.301
 20
318.658
 21
319.492
  0
LINE
  8
0
 10
-217.301
 11
-215.22
 20
319.492
 21
320.148
  0
LINE
  8
0
 10
-215.22
 11
-213.091
 20
320.148
 21
320.62
  0
LINE
  8
0
 10
-213.091
 11
-210.929
 20
320.62
 21
320.905
  0
LINE
  8
0
 10
-210.929
 11
-208.75
 20
320.905
 21
321
  0
LINE
  8
0
 10
-208.75
 11
208.75
 20
321
 21
321
  0
LINE
  8
0
 10
208.75
 11
210.929
 20
321
 21
320.905
  0
LINE
  8
0
 10
210.929
 11
213.091
 20
320.905
 21
320.62
  0
LINE
  8
0
 10
213.091
 11
215.22
 20
320.62
 21
320.148
  0
LINE
  8
0
 10
215.22
 11
217.301
 20
320.148
 21
319.492
  0
LINE
  8
0
 10
217.301
 11
219.315
 20
319.492
 21
318.658
  0
LINE
  8
0
 10
219.315
 11
221.25
 20
318.658
 21
317.651
  0
LINE
  8
0
 10
221.25
 11
223.089
 20
317.651
 21
316.479
  0
LINE
  8
0
 10
223.089
 11
224.82
 20
316.479
 21
315.151
  0
LINE
  8
0
 10
224.82
 11
226.428
 20
315.151
 21
313.678
  0
LINE
  8
0
 10
226.428
 11
227.901
 20
313.678
 21
312.07
  0
LINE
  8
0
 10
227.901
 11
229.229
 20
312.07
 21
310.339
  0
LINE
  8
0
 10
229.229
 11
230.401
 20
310.339
 21
308.5
  0
LINE
  8
0
 10
230.401
 11
231.408
 20
308.5
 21
306.565
  0
LINE
  8
0
 10
231.408
 11
232.242
 20
306.565
 21
304.551
  0
LINE
  8
0
 10
232.242
 11
232.898
 20
304.551
 21
302.47
  0
LINE
  8
0
 10
232.898
 11
233.37
 20
302.47
 21
300.341
  0
LINE
  8
0
 10
233.37
 11
233.655
 20
300.341
 21
298.179
  0
LINE
  8
0
 10
233.655
 11
233.75
 20
298.179
 21
296
  0
LINE
  8
0
 10
233.75
 11
233.75
 20
296
 21
0
  0
LINE
  8
0
 10
233.75
 11
118.75
 20
0
 21
0
  0
LINE
  8
0
 10
118.75
 11
118.75
 20
0
 21
220
  0
LINE
  8
0
 10
118.75
 11
118.725
 20
220
 21
220.498
  0
LINE
  8
0
 10
118.725
 11
118.651
 20
220.498
 21
220.991
  0
LINE
  8
0
 10
118.651
 11
118.528
 20
220.991
 21
221.474
  0
LINE
  8
0
 10
118.528
 11
118.357
 20
221.474
 21
221.942
  0
LINE
  8
0
 10
118.357
 11
118.141
 20
221.942
 21
222.391
  0
LINE
  8
0
 10
118.141
 11
117.881
 20
222.391
 21
222.817
  0
LINE
  8
0
 10
117.881
 11
117.58
 20
222.817
 21
223.214
  0
LINE
  8
0
 10
117.58
 11
117.241
 20
223.214
 21
223.579
  0
LINE
  8
0
 10
117.241
 11
116.867
 20
223.579
 21
223.909
  0
LINE
  8
0
 10
116.867
 11
116.463
 20
223.909
 21
224.2
  0
LINE
  8
0
 10
116.463
 11
116.031
 20
224.2
 21
224.449
  0
LINE
  8
0
 10
116.031
 11
115.577
 20
224.449
 21
224.654
  0
LINE
  8
0
 10
115.577
 11
115.104
 20
224.654
 21
224.813
  0
LINE
  8
0
 10
115.104
 11
114.618
 20
224.813
 21
224.924
  0
LINE
  8
0
 10
114.618
 11
114.124
 20
224.924
 21
224.986
  0
LINE
  8
0
 10
114.124
 11
113.75
 20
224.986
 21
224.995
  0
LINE
  8
0
 10
113.75
 11
113.75
 20
224.995
 21
225
  0
LINE
  8
0
 10
113.75
 11
-126.25
 20
225
 21
225
  0
LINE
  8
0
 10
-126.25
 11
-126.25
 20
225
 21
224.995
  0
LINE
  8
0
 10
-126.25
 11
-126.375
 20
224.995
 21
224.998
  0
LINE
  8
0
 10
-126.375
 11
-126.872
 20
224.998
 21
224.961
  0
LINE
  8
0
 10
-126.872
 11
-127.363
 20
224.961
 21
224.875
  0
LINE
  8
0
 10
-127.363
 11
-127.842
 20
224.875
 21
224.74
  0
LINE
  8
0
 10
-127.842
 11
-128.306
 20
224.74
 21
224.558
  0
LINE
  8
0
 10
-128.306
 11
-128.75
 20
224.558
 21
224.33
  0
LINE
  8
0
 10
-128.75
 11
-129.169
 20
224.33
 21
224.06
  0
LINE
  8
0
 10
-129.169
 11
-129.558
 20
224.06
 21
223.749
  0
LINE
  8
0
 10
-129.558
 11
-129.915
 20
223.749
 21
223.401
  0
LINE
  8
0
 10
-129.915
 11
-130.236
 20
223.401
 21
223.019
  0
LINE
  8
0
 10
-130.236
 11
-130.516
 20
223.019
 21
222.607
  0
LINE
  8
0
 10
-130.516
 11
-130.755
 20
222.607
 21
222.169
  0
LINE
  8
0
 10
-130.755
 11
-130.948
 20
222.169
 21
221.71
  0
LINE
  8
0
 10
-130.948
 11
-131.095
 20
221.71
 21
221.234
  0
LINE
  8
0
 10
-131.095
 11
-131.194
 20
221.234
 21
220.745
  0
LINE
  8
0
 10
-131.194
 11
-131.244
 20
220.745
 21
220.249
  0
LINE
  8
0
 10
-131.244
 11
-131.244
 20
220.249
 21
220
  0
LINE
  8
0
 10
-131.244
 11
-131.25
 20
220
 21
220
  0
LINE
  8
0
 10
-131.25
 11
-131.25
 20
220
 21
0
  0
LINE
  8
0
 10
-131.25
 11
-233.75
 20
0
 21
0
  0
LINE
  8
0
 10
148.67
 11
148.785
 20
8.2
 21
8.665
  0
LINE
  8
0
 10
148.785
 11
149.102
 20
8.665
 21
9.023
  0
LINE
  8
0
 10
149.102
 11
149.549
 20
9.023
 21
9.193
  0
LINE
  8
0
 10
149.549
 11
150.025
 20
9.193
 21
9.135
  0
LINE
  8
0
 10
150.025
 11
150.419
 20
9.135
 21
8.863
  0
LINE
  8
0
 10
150.419
 11
150.641
 20
8.863
 21
8.439
  0
LINE
  8
0
 10
150.641
 11
150.641
 20
8.439
 21
7.961
  0
LINE
  8
0
 10
150.641
 11
150.419
 20
7.961
 21
7.537
  0
LINE
  8
0
 10
150.419
 11
150.025
 20
7.537
 21
7.265
  0
LINE
  8
0
 10
150.025
 11
149.549
 20
7.265
 21
7.207
  0
LINE
  8
0
 10
149.549
 11
149.102
 20
7.207
 21
7.377
  0
LINE
  8
0
 10
149.102
 11
148.785
 20
7.377
 21
7.735
  0
LINE
  8
0
 10
148.785
 11
148.67
 20
7.735
 21
8.2
  0
LINE
  8
0
 10
154.757
 11
154.815
 20
312.379
 21
312.855
  0
LINE
  8
0
 10
154.815
 11
155.087
 20
312.855
 21
313.249
  0
LINE
  8
0
 10
155.087
 11
155.511
 20
313.249
 21
313.471
  0
LINE
  8
0
 10
155.511
 11
155.989
 20
313.471
 21
313.471
  0
LINE
  8
0
 10
155.989
 11
156.413
 20
313.471
 21
313.249
  0
LINE
  8
0
 10
156.413
 11
156.685
 20
313.249
 21
312.855
  0
LINE
  8
0
 10
156.685
 11
156.743
 20
312.855
 21
312.379
  0
LINE
  8
0
 10
156.743
 11
156.573
 20
312.379
 21
311.932
  0
LINE
  8
0
 10
156.573
 11
156.215
 20
311.932
 21
311.615
  0
LINE
  8
0
 10
156.215
 11
155.75
 20
311.615
 21
311.5
  0
LINE
  8
0
 10
155.75
 11
155.285
 20
311.5
 21
311.615
  0
LINE
  8
0
 10
155.285
 11
154.927
 20
311.615
 21
311.932
  0
LINE
  8
0
 10
154.927
 11
154.757
 20
311.932
 21
312.379
  0
LINE
  8
0
 10
159.37
 11
159.418
 20
7.5
 21
7.988
  0
LINE
  8
0
 10
159.418
 11
159.56
 20
7.988
 21
8.457
  0
LINE
  8
0
 10
159.56
 11
159.791
 20
8.457
 21
8.889
  0
LINE
  8
0
 10
159.791
 11
160.102
 20
8.889
 21
9.268
  0
LINE
  8
0
 10
160.102
 11
160.481
 20
9.268
 21
9.579
  0
LINE
  8
0
 10
160.481
 11
160.913
 20
9.579
 21
9.81
  0
LINE
  8
0
 10
160.913
 11
161.382
 20
9.81
 21
9.952
  0
LINE
  8
0
 10
161.382
 11
161.87
 20
9.952
 21
10
  0
LINE
  8
0
 10
161.87
 11
162.358
 20
10
 21
9.952
  0
LINE
  8
0
 10
162.358
 11
162.827
 20
9.952
 21
9.81
  0
LINE
  8
0
 10
162.827
 11
163.259
 20
9.81
 21
9.579
  0
LINE
  8
0
 10
163.259
 11
163.638
 20
9.579
 21
9.268
  0
LINE
  8
0
 10
163.638
 11
163.949
 20
9.268
 21
8.889
  0
LINE
  8
0
 10
163.949
 11
164.18
 20
8.889
 21
8.457
  0
LINE
  8
0
 10
164.18
 11
164.322
 20
8.457
 21
7.988
  0
LINE
  8
0
 10
164.322
 11
164.37
 20
7.988
 21
7.5
  0
LINE
  8
0
 10
164.37
 11
164.322
 20
7.5
 21
7.012
  0
LINE
  8
0
 10
164.322
 11
164.18
 20
7.012
 21
6.543
  0
LINE
  8
0
 10
164.18
 11
163.949
 20
6.543
 21
6.111
  0
LINE
  8
0
 10
163.949
 11
163.638
 20
6.111
 21
5.732
  0
LINE
  8
0
 10
163.638
 11
163.259
 20
5.732
 21
5.421
  0
LINE
  8
0
 10
163.259
 11
162.827
 20
5.421
 21
5.19
  0
LINE
  8
0
 10
162.827
 11
162.358
 20
5.19
 21
5.048
  0
LINE
  8
0
 10
162.358
 11
161.87
 20
5.048
 21
5
  0
LINE
  8
0
 10
161.87
 11
161.382
 20
5
 21
5.048
  0
LINE
  8
0
 10
161.382
 11
160.913
 20
5.048
 21
5.19
  0
LINE
  8
0
 10
160.913
 11
160.481
 20
5.19
 21
5.421
  0
LINE
  8
0
 10
160.481
 11
160.102
 20
5.421
 21
5.732
  0
LINE
  8
0
 10
160.102
 11
159.791
 20
5.732
 21
6.111
  0
LINE
  8
0
 10
159.791
 11
159.56
 20
6.111
 21
6.543
  0
LINE
  8
0
 10
159.56
 11
159.418
 20
6.543
 21
7.012
  0
LINE
  8
0
 10
159.418
 11
159.37
 20
7.012
 21
7.5
  0
LINE
  8
0
 10
168.257
 11
168.315
 20
255.059
 21
255.535
  0
LINE
  8
0
 10
168.315
 11
168.587
 20
255.535
 21
255.929
  0
LINE
  8
0
 10
168.587
 11
169.011
 20
255.929
 21
256.151
  0
LINE
  8
0
 10
169.011
 11
169.489
 20
256.151
 21
256.151
  0
LINE
  8
0
 10
169.489
 11
169.913
 20
256.151
 21
255.929
  0
LINE
  8
0
 10
169.913
 11
170.185
 20
255.929
 21
255.535
  0
LINE
  8
0
 10
170.185
 11
170.243
 20
255.535
 21
255.059
  0
LINE
  8
0
 10
170.243
 11
170.073
 20
255.059
 21
254.612
  0
LINE
  8
0
 10
170.073
 11
169.715
 20
254.612
 21
254.295
  0
LINE
  8
0
 10
169.715
 11
169.25
 20
254.295
 21
254.18
  0
LINE
  8
0
 10
169.25
 11
168.785
 20
254.18
 21
254.295
  0
LINE
  8
0
 10
168.785
 11
168.427
 20
254.295
 21
254.612
  0
LINE
  8
0
 10
168.427
 11
168.257
 20
254.612
 21
255.059
  0
LINE
  8
0
 10
169.057
 11
169.115
 20
36.589
 21
37.065
  0
LINE
  8
0
 10
169.115
 11
169.387
 20
37.065
 21
37.459
  0
LINE
  8
0
 10
169.387
 11
169.811
 20
37.459
 21
37.681
  0
LINE
  8
0
 10
169.811
 11
170.289
 20
37.681
 21
37.681
  0
LINE
  8
0
 10
170.289
 11
170.713
 20
37.681
 21
37.459
  0
LINE
  8
0
 10
170.713
 11
170.985
 20
37.459
 21
37.065
  0
LINE
  8
0
 10
170.985
 11
171.043
 20
37.065
 21
36.589
  0
LINE
  8
0
 10
171.043
 11
170.873
 20
36.589
 21
36.142
  0
LINE
  8
0
 10
170.873
 11
170.515
 20
36.142
 21
35.825
  0
LINE
  8
0
 10
170.515
 11
170.05
 20
35.825
 21
35.71
  0
LINE
  8
0
 10
170.05
 11
169.585
 20
35.71
 21
35.825
  0
LINE
  8
0
 10
169.585
 11
169.227
 20
35.825
 21
36.142
  0
LINE
  8
0
 10
169.227
 11
169.057
 20
36.142
 21
36.589
  0
LINE
  8
0
 10
169.057
 11
169.115
 20
284.169
 21
284.645
  0
LINE
  8
0
 10
169.115
 11
169.387
 20
284.645
 21
285.039
  0
LINE
  8
0
 10
169.387
 11
169.811
 20
285.039
 21
285.261
  0
LINE
  8
0
 10
169.811
 11
170.289
 20
285.261
 21
285.261
  0
LINE
  8
0
 10
170.289
 11
170.713
 20
285.261
 21
285.039
  0
LINE
  8
0
 10
170.713
 11
170.985
 20
285.039
 21
284.645
  0
LINE
  8
0
 10
170.985
 11
171.043
 20
284.645
 21
284.169
  0
LINE
  8
0
 10
171.043
 11
170.873
 20
284.169
 21
283.722
  0
LINE
  8
0
 10
170.873
 11
170.515
 20
283.722
 21
283.405
  0
LINE
  8
0
 10
170.515
 11
170.05
 20
283.405
 21
283.29
  0
LINE
  8
0
 10
170.05
 11
169.585
 20
283.29
 21
283.405
  0
LINE
  8
0
 10
169.585
 11
169.227
 20
283.405
 21
283.722
  0
LINE
  8
0
 10
169.227
 11
169.057
 20
283.722
 21
284.169
  0
LINE
  8
0
 10
171.779
 11
171.779
 20
61.261
 21
61.739
  0
LINE
  8
0
 10
171.779
 11
172.001
 20
61.739
 21
62.163
  0
LINE
  8
0
 10
172.001
 11
172.395
 20
62.163
 21
62.435
  0
LINE
  8
0
 10
172.395
 11
172.871
 20
62.435
 21
62.493
  0
LINE
  8
0
 10
172.871
 11
173.318
 20
62.493
 21
62.323
  0
LINE
  8
0
 10
173.318
 11
173.635
 20
62.323
 21
61.965
  0
LINE
  8
0
 10
173.635
 11
173.75
 20
61.965
 21
61.5
  0
LINE
  8
0
 10
173.75
 11
173.635
 20
61.5
 21
61.035
  0
LINE
  8
0
 10
173.635
 11
173.318
 20
61.035
 21
60.677
  0
LINE
  8
0
 10
173.318
 11
172.871
 20
60.677
 21
60.507
  0
LINE
  8
0
 10
172.871
 11
172.395
 20
60.507
 21
60.565
  0
LINE
  8
0
 10
172.395
 11
172.001
 20
60.565
 21
60.837
  0
LINE
  8
0
 10
172.001
 11
171.779
 20
60.837
 21
61.261
  0
LINE
  8
0
 10
182.079
 11
182.079
 20
307.761
 21
308.239
  0
LINE
  8
0
 10
182.079
 11
182.301
 20
308.239
 21
308.663
  0
LINE
  8
0
 10
182.301
 11
182.695
 20
308.663
 21
308.935
  0
LINE
  8
0
 10
182.695
 11
183.171
 20
308.935
 21
308.993
  0
LINE
  8
0
 10
183.171
 11
183.618
 20
308.993
 21
308.823
  0
LINE
  8
0
 10
183.618
 11
183.935
 20
308.823
 21
308.465
  0
LINE
  8
0
 10
183.935
 11
184.05
 20
308.465
 21
308
  0
LINE
  8
0
 10
184.05
 11
183.935
 20
308
 21
307.535
  0
LINE
  8
0
 10
183.935
 11
183.618
 20
307.535
 21
307.177
  0
LINE
  8
0
 10
183.618
 11
183.171
 20
307.177
 21
307.007
  0
LINE
  8
0
 10
183.171
 11
182.695
 20
307.007
 21
307.065
  0
LINE
  8
0
 10
182.695
 11
182.301
 20
307.065
 21
307.337
  0
LINE
  8
0
 10
182.301
 11
182.079
 20
307.337
 21
307.761
  0
LINE
  8
0
 10
201.83
 11
201.945
 20
8.2
 21
8.665
  0
LINE
  8
0
 10
201.945
 11
202.262
 20
8.665
 21
9.023
  0
LINE
  8
0
 10
202.262
 11
202.709
 20
9.023
 21
9.193
  0
LINE
  8
0
 10
202.709
 11
203.185
 20
9.193
 21
9.135
  0
LINE
  8
0
 10
203.185
 11
203.579
 20
9.135
 21
8.863
  0
LINE
  8
0
 10
203.579
 11
203.801
 20
8.863
 21
8.439
  0
LINE
  8
0
 10
203.801
 11
203.801
 20
8.439
 21
7.961
  0
LINE
  8
0
 10
203.801
 11
203.579
 20
7.961
 21
7.537
  0
LINE
  8
0
 10
203.579
 11
203.185
 20
7.537
 21
7.265
  0
LINE
  8
0
 10
203.185
 11
202.709
 20
7.265
 21
7.207
  0
LINE
  8
0
 10
202.709
 11
202.262
 20
7.207
 21
7.377
  0
LINE
  8
0
 10
202.262
 11
201.945
 20
7.377
 21
7.735
  0
LINE
  8
0
 10
201.945
 11
201.83
 20
7.735
 21
8.2
  0
LINE
  8
0
 10
216.479
 11
216.479
 20
307.761
 21
308.239
  0
LINE
  8
0
 10
216.479
 11
216.701
 20
308.239
 21
308.663
  0
LINE
  8
0
 10
216.701
 11
217.095
 20
308.663
 21
308.935
  0
LINE
  8
0
 10
217.095
 11
217.571
 20
308.935
 21
308.993
  0
LINE
  8
0
 10
217.571
 11
218.018
 20
308.993
 21
308.823
  0
LINE
  8
0
 10
218.018
 11
218.335
 20
308.823
 21
308.465
  0
LINE
  8
0
 10
218.335
 11
218.45
 20
308.465
 21
308
  0
LINE
  8
0
 10
218.45
 11
218.335
 20
308
 21
307.535
  0
LINE
  8
0
 10
218.335
 11
218.018
 20
307.535
 21
307.177
  0
LINE
  8
0
 10
218.018
 11
217.571
 20
307.177
 21
307.007
  0
LINE
  8
0
 10
217.571
 11
217.095
 20
307.007
 21
307.065
  0
LINE
  8
0
 10
217.095
 11
216.701
 20
307.065
 21
307.337
  0
LINE
  8
0
 10
216.701
 11
216.479
 20
307.337
 21
307.761
  0
LINE
  8
0
 10
223.05
 11
223.165
 20
8.2
 21
8.665
  0
LINE
  8
0
 10
223.165
 11
223.482
 20
8.665
 21
9.023
  0
LINE
  8
0
 10
223.482
 11
223.929
 20
9.023
 21
9.193
  0
LINE
  8
0
 10
223.929
 11
224.405
 20
9.193
 21
9.135
  0
LINE
  8
0
 10
224.405
 11
224.799
 20
9.135
 21
8.863
  0
LINE
  8
0
 10
224.799
 11
225.021
 20
8.863
 21
8.439
  0
LINE
  8
0
 10
225.021
 11
225.021
 20
8.439
 21
7.961
  0
LINE
  8
0
 10
225.021
 11
224.799
 20
7.961
 21
7.537
  0
LINE
  8
0
 10
224.799
 11
224.405
 20
7.537
 21
7.265
  0
LINE
  8
0
 10
224.405
 11
223.929
 20
7.265
 21
7.207
  0
LINE
  8
0
 10
223.929
 11
223.482
 20
7.207
 21
7.377
  0
LINE
  8
0
 10
223.482
 11
223.165
 20
7.377
 21
7.735
  0
LINE
  8
0
 10
223.165
 11
223.05
 20
7.735
 21
8.2
  0
ENDSEC
  0
SECTION
  2
OBJECTS
  0
DICTIONARY
  0
ENDSEC
  0
EOF
